<svg width="114" height="81" viewBox="0 0 114 81" fill="none" xmlns="http://www.w3.org/2000/svg">
<rect x="21.7725" y="14.1494" width="92.2013" height="52.4395" fill="#E5E9FF"/>
<path fill-rule="evenodd" clip-rule="evenodd" d="M14.8574 7.23438H92.076V10.6919H18.315V51.03H14.8574V7.23438Z" fill="#203DE3" stroke="#3E5BFF" stroke-width="0.5"/>
<path d="M108.211 46.1728H100.308V34.3184H88.4537V46.1728H80.5508L94.381 61.9787L108.211 46.1728Z" fill="#203DE3"/>
<path fill-rule="evenodd" clip-rule="evenodd" d="M113.974 73.5044L74.7881 73.5044L74.7881 70.0469L113.974 70.0469L113.974 73.5044Z" fill="#E5E9FF"/>
<path fill-rule="evenodd" clip-rule="evenodd" d="M7.94238 0.319336H71.3307V3.77688H11.3999V36.0473H7.94238V0.319336Z" fill="#203DE3" stroke="#3E5BFF" stroke-width="0.5"/>
<path d="M2.67546 61.5888L26.4686 53.6577C27.1909 53.417 27.8741 54.1125 27.6204 54.8304L19.3445 78.2493C19.0736 79.0161 18.0117 79.0746 17.6582 78.3422L13.0109 68.7157C12.9229 68.5335 12.7771 68.3856 12.5961 68.2951L2.55563 63.2749C1.82666 62.9104 1.90227 61.8465 2.67546 61.5888Z" fill="#E5E9FF" stroke="#031268" stroke-width="2"/>
</svg>
