<svg width="160" height="38" viewBox="0 0 160 38" fill="none" xmlns="http://www.w3.org/2000/svg">
<g clip-path="url(#clip0_13246_2120)">
<path d="M120.071 27.6177C115.417 27.6177 112.277 24.1747 112.277 19.1698C112.277 14.1647 115.417 10.7219 120.071 10.7219C124.726 10.7219 127.866 14.1647 127.866 19.1698C127.866 24.1747 124.71 27.6177 120.071 27.6177ZM120.071 5.8125C112.628 5.8125 106.603 11.7898 106.603 19.1698C106.603 26.5497 112.628 32.527 120.071 32.527C127.515 32.527 133.604 26.5497 133.604 19.1698C133.604 11.7898 127.5 5.8125 120.071 5.8125Z" fill="#E5E9FF"/>
<path d="M75.2181 6.35352H69.5439V30.3902C69.5439 31.2509 70.2453 31.9682 71.1215 31.9682H85.5946V27.2979H75.2181V6.35352Z" fill="#E5E9FF"/>
<path d="M94.8236 6.35352H89.1494V30.3902C89.1494 31.2509 89.8507 31.9682 90.7275 31.9682H106.651V27.2979H94.8236V6.35352Z" fill="#E5E9FF"/>
<path d="M47.675 23.5043L52.0424 13.6059L56.4258 23.5043H47.675ZM53.6524 6.35352H50.4484C49.8268 6.35352 49.269 6.72013 49.0139 7.278L37.8882 31.9682H43.9292L45.6826 28.0152H58.4183L60.1714 31.9682H66.2125L55.0866 7.278C54.8316 6.72013 54.2738 6.35352 53.6524 6.35352Z" fill="#E5E9FF"/>
<path d="M153.401 6.35352L146.34 17.9734L139.279 6.35352H132.696L143.056 22.5958C143.375 23.1058 143.55 23.6796 143.55 24.2854V31.9682H149.145V24.2854C149.145 23.6796 149.32 23.1058 149.639 22.5958L160 6.35352H153.401Z" fill="#E5E9FF"/>
<path d="M2.77346 2.97475C3.61825 2.48062 4.63837 2.48062 5.49909 2.97475L6.79019 3.7239C6.02512 4.12238 5.48315 4.82372 5.27595 5.68445L1.54612 21.9427L1.41861 22.1658V5.31785C1.40267 4.34554 1.91273 3.46887 2.77346 2.97475ZM1.46643 25.3059C1.43455 25.2421 1.35485 25.0668 1.46643 24.8755L4.62244 19.4083L11.572 7.35808L11.7314 7.08715C11.843 6.89584 12.0343 6.86395 12.114 6.86395C12.1937 6.86395 12.385 6.87989 12.4965 7.08715L13.8992 9.50992L22.618 24.6045L22.7774 24.8755C22.8253 24.9552 22.8412 25.019 22.8412 25.0987C22.8412 25.1943 22.8093 25.274 22.7774 25.3218C22.7455 25.3856 22.634 25.545 22.3949 25.545H19.5895H2.16776H1.84898C1.62582 25.529 1.51425 25.3697 1.46643 25.3059ZM23.9888 24.1742L17.4059 12.7775L26.2523 21.0022C26.6667 21.3848 26.842 21.9586 26.7145 22.5165C26.587 23.0743 26.1885 23.5047 25.6466 23.6801L23.9888 24.1742ZM28.165 22.2614C28.1968 21.4007 27.8621 20.5719 27.2245 19.9662L15.0149 8.61728L14.8874 8.37824L29.456 16.8102C30.3008 17.3043 30.8109 18.181 30.8109 19.1692C30.8109 20.1574 30.3008 21.0341 29.456 21.5283L28.165 22.2614ZM10.52 6.36987L3.93704 17.7825L6.63083 6.00325C6.75829 5.44536 7.1568 5.01499 7.69872 4.8556C8.24069 4.68027 8.8145 4.82372 9.2289 5.20627L10.52 6.36987ZM1.83303 26.9317C1.84898 26.9317 1.84898 26.9317 1.83303 26.9317H14.999L3.44292 30.4862C2.90098 30.6615 2.32716 30.5181 1.89679 30.1355C1.48237 29.753 1.30703 29.1791 1.43455 28.6213L1.83303 26.9317ZM1.40267 31.5063C2.13588 31.9686 3.01255 32.0961 3.85734 31.8251L19.7967 26.9317H20.0677L5.48315 35.3477C4.63837 35.8419 3.61825 35.8419 2.75752 35.3477C1.91273 34.8536 1.40267 33.977 1.40267 32.9887V31.5063ZM6.20043 1.74741C4.90934 0.998258 3.36322 0.998258 2.07213 1.74741C0.765093 2.49657 0 3.83548 0 5.31785V25.0668V25.0827V25.0987V32.9887C0 34.487 0.765093 35.81 2.07213 36.5591C3.36322 37.3083 4.90934 37.3083 6.20043 36.5591L23.2875 26.6926C23.3035 26.6767 23.3194 26.6767 23.3353 26.6607L30.1574 22.7237C31.4485 21.9746 32.2136 20.6356 32.2136 19.1533C32.2136 17.655 31.4485 16.3161 30.1574 15.5828L13.0544 5.70039C13.0385 5.70039 13.0385 5.68445 13.0225 5.68445L6.20043 1.74741Z" fill="#E5E9FF"/>
</g>
<defs>
<clipPath id="clip0_13246_2120">
<rect width="160" height="36.8" fill="white" transform="translate(0 0.666016)"/>
</clipPath>
</defs>
</svg>
