<svg width="138" height="41" viewBox="0 0 138 41" fill="none" xmlns="http://www.w3.org/2000/svg">
<g clip-path="url(#clip0_13246_2126)">
<path fill-rule="evenodd" clip-rule="evenodd" d="M20.1874 0.639648C9.0495 0.639648 0 9.60516 0 20.6396C0 31.6741 9.0495 40.6396 20.1874 40.6396C31.3253 40.6396 40.3746 31.6741 40.3746 20.6396C40.3746 9.60516 31.3253 0.639648 20.1874 0.639648ZM20.1874 38.4673C10.2677 38.4673 2.19276 30.4673 2.19276 20.6396C2.19276 10.8121 10.2677 2.81206 20.1874 2.81206C30.107 2.81206 38.1819 10.7776 38.1819 20.6396C38.1819 30.5018 30.107 38.4673 20.1874 38.4673Z" fill="#E5E9FF"/>
<path fill-rule="evenodd" clip-rule="evenodd" d="M20.1871 6.8125C12.495 6.8125 6.22998 12.9849 6.22998 20.6401C6.22998 28.2607 12.4602 34.4677 20.1871 34.4677C27.8792 34.4677 34.1442 28.2952 34.1442 20.6401C34.1442 13.0194 27.8792 6.8125 20.1871 6.8125ZM20.1871 32.2607C13.7132 32.2607 8.45756 27.0539 8.45756 20.6401C8.45756 14.2262 13.7132 9.0194 20.1871 9.0194C26.6609 9.0194 31.9167 14.2262 31.9167 20.6401C31.9167 27.0539 26.6609 32.2607 20.1871 32.2607Z" fill="#E5E9FF"/>
<path d="M56.106 10.4326L47.2305 31.4671H50.3282L52.5558 26.1913H62.0926L64.2505 31.3636L64.2853 31.4671H67.4178L58.5423 10.4326H56.106ZM53.6347 23.674L57.3242 14.8464L61.0136 23.674H53.6347Z" fill="#E5E9FF"/>
<path d="M71.8718 9.60547H69.7486H69.6093H69.4702V31.4675H72.1502V9.60547H72.011H71.8718Z" fill="#E5E9FF"/>
<path d="M81.9665 29.191C80.4003 29.191 79.5998 28.329 79.5998 26.6048L79.6693 19.3979H83.498V17.0186H79.6693L79.7042 12.1221H76.9197V17.0186H74.2744V19.3979H76.9197L76.8849 27.0875C76.8849 28.5704 77.2678 29.7083 78.0335 30.5014C78.834 31.2945 79.9478 31.6738 81.4097 31.6738C82.3145 31.6738 82.9063 31.6048 83.3588 31.5014L83.4632 31.4669V29.0531L83.2543 29.0876C82.941 29.122 82.4887 29.191 81.9665 29.191Z" fill="#E5E9FF"/>
<path d="M92.5456 16.8467C90.144 16.8467 88.9955 17.9846 88.4734 18.7432V17.0191H85.8281V31.4673H88.543V23.1914C88.543 20.9846 90.1789 19.4673 92.5456 19.4673H92.6849V16.8467H92.5456Z" fill="#E5E9FF"/>
<path d="M104.172 25.4323C104.172 27.2944 102.989 29.1909 100.691 29.1909C98.6727 29.1909 97.4893 27.8462 97.4893 25.5703V17.0186H94.7744V25.9152C94.7744 29.3979 96.9324 31.7427 100.135 31.7427C102.223 31.7427 103.58 30.7772 104.276 29.7772V31.4668H106.852V17.0186H104.137V25.4323H104.172Z" fill="#E5E9FF"/>
<path d="M111.309 10.3291C110.334 10.3291 109.568 11.0877 109.568 12.0532C109.568 13.0188 110.334 13.7429 111.309 13.7429C112.283 13.7429 113.049 12.9843 113.049 12.0532C113.049 11.1222 112.248 10.3291 111.309 10.3291Z" fill="#E5E9FF"/>
<path d="M112.63 17.0186H109.915V31.4668H112.63V17.0186Z" fill="#E5E9FF"/>
<path d="M121.436 22.984C121.227 22.9495 120.983 22.8805 120.775 22.846C119.139 22.5013 118.129 22.2599 118.129 21.0529C118.129 20.5358 118.303 20.0874 118.617 19.7771C119.034 19.3633 119.73 19.1564 120.601 19.1564C120.67 19.1564 120.705 19.1564 120.775 19.1564C122.376 19.1564 123.281 19.915 123.455 21.3633L123.489 21.5013L126.204 21.3288L126.169 21.1909C125.821 18.4323 123.837 16.8115 120.879 16.8115C120.809 16.8115 120.775 16.8115 120.705 16.8115C118.93 16.8115 117.468 17.2944 116.563 18.2254C115.832 18.9495 115.414 19.9495 115.414 21.0874C115.414 24.0185 117.712 24.5358 120.357 25.1564C122.933 25.7771 123.768 26.0874 123.768 27.3978C123.768 28.6391 122.724 29.3633 120.983 29.3633C119.139 29.3633 118.025 28.5701 117.816 27.0874L117.781 26.9495L115.066 27.1219L115.101 27.2599C115.484 30.0874 117.607 31.6736 120.914 31.6736C124.394 31.6736 126.448 29.984 126.448 27.1564C126.483 24.4323 124.186 23.6391 121.436 22.984Z" fill="#E5E9FF"/>
<path d="M136.578 29.0883C136.265 29.1572 135.813 29.2262 135.255 29.2262C133.689 29.2262 132.889 28.3641 132.889 26.64L132.958 19.4331H136.786V17.0538H132.958L132.993 12.1572H130.278L130.244 17.0538H127.598V19.4331H130.244L130.174 27.0883C130.174 28.5711 130.556 29.709 131.323 30.5021C132.123 31.2952 133.236 31.6745 134.699 31.6745C135.604 31.6745 136.195 31.6055 136.648 31.5021L136.751 31.4676V29.0538L136.578 29.0883Z" fill="#E5E9FF"/>
</g>
<defs>
<clipPath id="clip0_13246_2126">
<rect width="137.5" height="40" fill="white" transform="translate(0 0.639648)"/>
</clipPath>
</defs>
</svg>
