<svg width="160" height="22" viewBox="0 0 160 22" fill="none" xmlns="http://www.w3.org/2000/svg">
<g clip-path="url(#clip0_13246_2117)">
<path d="M145.586 7.20355C144.759 7.19268 143.942 7.3923 143.206 7.78477C142.471 8.17723 141.841 8.75054 141.37 9.45416V7.58616H138.105V20.2558H141.37V14.0547C141.37 11.6717 142.466 10.2498 144.301 10.2498C145.918 10.2498 147.075 11.3566 147.075 13.206V20.2558H150.316V12.4978C150.317 9.18805 148.384 7.20355 145.586 7.20355Z" fill="#E5E9FF"/>
<path d="M113.316 20.2465H109.871V13.1975C109.871 11.4568 108.782 10.2416 107.219 10.2416C105.267 10.2416 104.103 11.6633 104.103 14.046V20.2465H100.632V7.58217H104.103V9.45396C104.602 8.75033 105.272 8.17703 106.053 7.78457C106.834 7.3921 107.703 7.19257 108.582 7.20356C110.573 7.20356 112.075 8.19901 112.812 9.87753C113.334 9.05189 114.067 8.37168 114.94 7.90313C115.813 7.43455 116.796 7.19358 117.793 7.20356C120.669 7.20356 122.527 9.28052 122.527 12.4986V20.2558H119.084V13.2068C119.084 11.466 117.994 10.2508 116.43 10.2508C114.48 10.2508 113.314 11.6726 113.314 14.0553L113.316 20.2465Z" fill="#E5E9FF"/>
<path d="M42.5831 11.7169L41.8417 11.4197L42.5503 11.0578C42.6337 11.0155 44.5305 10.0011 44.5305 7.56021C44.5305 5.49966 42.6989 3.41406 39.1976 3.41406H30.7368V20.2562H39.214C44.7718 20.2562 45.0526 16.4403 45.0526 15.6755C45.0539 12.7432 42.6076 11.7288 42.5831 11.7169ZM34.2367 6.18518H38.4194C39.567 6.18518 40.8031 6.85486 40.8031 8.32762C40.8031 9.76467 39.6038 10.5176 38.4194 10.5176H34.2367V6.18518ZM38.9673 17.4851H34.2367V13.1527H38.9673C40.5169 13.1527 41.3265 14.2542 41.3265 15.3439C41.3265 16.5869 40.3343 17.4877 38.9673 17.4877V17.4851Z" fill="#E5E9FF"/>
<path d="M59.3684 13.9446C59.293 9.97652 56.5629 7.20312 52.7267 7.20312C48.8328 7.20312 45.8951 10.1001 45.8951 13.9419C45.8724 15.7003 46.5393 17.3993 47.7574 18.6835C49.0025 19.9712 50.7877 20.6768 52.7296 20.6768C54.6711 20.6768 56.4564 19.9685 57.7014 18.6835C58.3709 17.9854 58.8766 17.1513 59.1839 16.2396H56.0374C55.3932 17.3705 54.1793 18.0562 52.7296 18.0562C51.0601 18.0562 49.7124 16.8855 49.3418 15.0742L49.2517 14.6356H59.3684V13.9446ZM49.4361 12.3247C49.637 11.6177 50.0677 10.9953 50.6623 10.5537C51.2568 10.112 51.9823 9.87559 52.7267 9.88085C54.2968 9.88085 55.4703 10.7951 55.8799 12.3247H49.4361Z" fill="#E5E9FF"/>
<path d="M90.5264 13.9446C90.4531 9.97652 87.8089 7.20312 84.0931 7.20312C80.3196 7.20312 77.4742 10.1001 77.4742 13.9419C77.4527 15.7001 78.099 17.3989 79.2779 18.6835C80.4843 19.9712 82.2135 20.6768 84.0956 20.6768C85.9777 20.6768 87.7057 19.9685 88.9116 18.6835C89.56 17.9854 90.0501 17.1513 90.3474 16.2396H87.296C86.672 17.3705 85.4948 18.0562 84.0918 18.0562C82.4746 18.0562 81.1693 16.8855 80.8106 15.0742L80.723 14.6356H90.5226L90.5264 13.9446ZM80.9045 12.3247C81.099 11.6176 81.5163 10.9952 82.0927 10.5535C82.6687 10.1119 83.3718 9.87555 84.0931 9.88085C85.6135 9.88085 86.7504 10.7951 87.147 12.3247H80.9045Z" fill="#E5E9FF"/>
<path d="M136.421 13.9446C136.348 9.97652 133.703 7.20312 129.987 7.20312C126.213 7.20312 123.369 10.1001 123.369 13.9419C123.347 15.7 123.993 17.3987 125.172 18.6835C126.379 19.9712 128.108 20.6768 129.989 20.6768C131.871 20.6768 133.6 19.9685 134.806 18.6835C135.455 17.9854 135.945 17.1513 136.242 16.2396H133.19C132.566 17.3705 131.39 18.0562 129.986 18.0562C128.368 18.0562 127.063 16.8855 126.704 15.0742L126.617 14.6356H136.421V13.9446ZM126.799 12.3247C126.993 11.6176 127.41 10.9951 127.987 10.5534C128.563 10.1117 129.266 9.87538 129.987 9.88085C131.508 9.88085 132.644 10.7951 133.042 12.3247H126.799Z" fill="#E5E9FF"/>
<path d="M99.7897 7.21559C97.6478 7.08321 95.8268 8.00999 94.9055 9.76565V7.58498H91.3687V20.2558H94.9055V14.7545C94.9055 11.3942 97.3202 9.67959 99.7897 10.6421V7.21559Z" fill="#E5E9FF"/>
<path d="M77.0735 17.5003C76.5754 17.7186 76.0377 17.832 75.4942 17.8333C73.9918 17.8333 73.1632 16.9218 73.1632 15.266V10.1909H77.2222V7.60226H73.1607V2.15172L69.7733 3.38166V7.60226H64.0192V2.15039L60.6318 3.38035V15.7197C60.6318 18.9625 62.3165 20.6767 65.5017 20.6767C66.7447 20.6767 67.8108 20.4764 68.751 20.0637L67.9291 17.503C67.4314 17.7213 66.8937 17.8347 66.3497 17.836C64.8474 17.836 64.0192 16.9245 64.0192 15.2686V10.1949H69.7758V15.7197C69.7758 18.9625 71.4605 20.6767 74.647 20.6767C75.8887 20.6767 76.9552 20.4764 77.895 20.0637L77.0735 17.5003Z" fill="#E5E9FF"/>
<path d="M159.19 17.499C158.7 17.7173 158.171 17.8306 157.635 17.832C156.154 17.832 155.339 16.9205 155.339 15.2646V10.1895H159.337V7.60096H155.338V2.15039L152 3.38034V15.7197C152 18.9624 153.66 20.6767 156.8 20.6767C158.024 20.6767 159.075 20.4764 160 20.0637L159.19 17.499Z" fill="#E5E9FF"/>
<path d="M13.4737 18.1137L24.1745 21.9405C25.927 19.71 26.9474 16.87 26.9474 13.7024C26.9474 6.15728 21.1558 0.466797 13.4737 0.466797C5.79154 0.466797 0 6.15728 0 13.7024C0 16.87 1.02172 19.706 2.77419 21.9405L13.4737 18.1137Z" fill="#E5E9FF"/>
</g>
<defs>
<clipPath id="clip0_13246_2117">
<rect width="160" height="21.4737" fill="white" transform="translate(0 0.466797)"/>
</clipPath>
</defs>
</svg>
