<svg width="97" height="41" viewBox="0 0 97 41" fill="none" xmlns="http://www.w3.org/2000/svg">
<g clip-path="url(#clip0_13246_2118)">
<mask id="mask0_13246_2118" style="mask-type:luminance" maskUnits="userSpaceOnUse" x="0" y="0" width="97" height="40">
<path d="M96.9697 0.175781H0V39.9274H96.9697V0.175781Z" fill="white"/>
</mask>
<g mask="url(#mask0_13246_2118)">
<path d="M37.0658 20.8136V25.7034C37.7631 26.7779 38.9706 27.4761 40.5283 27.4761C42.8625 27.4761 44.5009 25.7292 44.5009 23.2844C44.5009 20.8928 42.7834 19.1476 40.475 19.1476C38.9706 19.1492 37.7906 19.794 37.0658 20.8136ZM41.0917 30.0017C39.4807 30.0017 38.086 29.5185 37.0125 28.5506V29.7335H34.0068V10.1211H37.0658V18.2879C38.1393 17.1325 39.6147 16.5686 41.3322 16.5686C44.7673 16.5686 47.5582 19.3092 47.5582 23.2844C47.5599 27.1545 44.6607 30.0017 41.0917 30.0017Z" fill="#E5E9FF"/>
<path d="M52.6737 10.1211H49.6147V29.7335H52.6737V10.1211Z" fill="#E5E9FF"/>
<path d="M57.8379 21.7264H64.2251C63.8493 20.1687 62.7499 19.0407 61.0584 19.0407C59.5022 19.0391 58.2673 20.007 57.8379 21.7264ZM61.9172 29.9999C57.7039 29.9999 54.6982 27.2867 54.6982 23.2841C54.6982 19.3073 57.7039 16.5684 61.0584 16.5684C65.0033 16.5684 67.2584 19.3898 67.2584 23.3391V23.9838H57.7314C58.0268 26.1071 59.5296 27.4758 62.1336 27.4758C63.8233 27.4758 65.7554 26.8036 66.9099 25.8906V28.5229C65.8075 29.3551 63.9027 29.9999 61.9172 29.9999Z" fill="#E5E9FF"/>
<path d="M72.5109 20.7053V29.7317H69.4521V16.8367H72.4576V18.2603C73.3697 17.2133 74.7921 16.541 76.5109 16.541C79.6782 16.541 81.4491 18.6627 81.4491 21.7523V29.7317H78.3897V22.1014C78.3897 20.4354 77.397 19.2267 75.6794 19.2267C74.2285 19.2267 73.1824 19.8181 72.5109 20.7053Z" fill="#E5E9FF"/>
<path d="M90.5032 27.4502C92.0062 27.4502 93.1862 26.8055 93.9111 25.7842V20.8944C93.2135 19.8198 92.0062 19.1218 90.4486 19.1218C88.1141 19.1218 86.4759 20.8685 86.4759 23.2859C86.4771 25.7034 88.1947 27.4502 90.5032 27.4502ZM93.9644 28.2565C92.9183 29.4119 91.4414 30.0033 89.7511 30.0033C86.2626 30.0033 83.4165 27.2902 83.4165 23.3409C83.4165 19.4449 86.3141 16.5702 89.885 16.5702C91.4686 16.5702 92.865 17.0275 93.9111 17.9938V10.1211H96.9698V29.7335H93.9644V28.2565Z" fill="#E5E9FF"/>
<path d="M15.3384 15.7096L16.675 14.7045C19.5273 12.62 19.4078 10.0878 18.9155 8.57372C18.3586 6.8576 16.7831 5.02353 14.0325 5.02353H0V0.175781H14.0325C18.4361 0.175781 22.1601 2.88406 23.5208 7.07736C24.8816 11.2707 23.4579 15.6514 19.8953 18.2434L19.3594 18.6328L15.3384 15.7096ZM17.3998 20.0564L19.8808 21.8581C23.445 24.4485 24.8687 28.8308 23.5096 33.0241C22.1504 37.2174 18.4248 39.9274 14.0211 39.9274H0V35.0796H14.0195C16.7702 35.0796 18.3456 33.2455 18.9025 31.5278C19.4595 29.8101 19.2609 27.3991 17.0349 25.7816L13.2786 23.0523L9.15751 20.058L4.84267 16.9231V23.1961L7.172 21.5043L11.2931 24.4986L3.84508 29.9151C3.10899 30.45 2.13401 30.5275 1.32205 30.1139C0.510095 29.697 0 28.8632 0 27.9518V12.1691C0 11.2577 0.510095 10.4239 1.32205 10.0103C2.13239 9.59657 3.10738 9.67251 3.84347 10.2074L13.2786 17.0621L17.3998 20.0564Z" fill="#E5E9FF"/>
</g>
</g>
<defs>
<clipPath id="clip0_13246_2118">
<rect width="96.9697" height="40" fill="white" transform="translate(0 0.175781)"/>
</clipPath>
</defs>
</svg>
