<svg width="100" height="41" viewBox="0 0 100 41" fill="none" xmlns="http://www.w3.org/2000/svg">
<g clip-path="url(#clip0_13246_2110)">
<mask id="mask0_13246_2110" style="mask-type:luminance" maskUnits="userSpaceOnUse" x="0" y="0" width="100" height="41">
<path d="M99.1055 0.639648H0.605469V40.6396H99.1055V0.639648Z" fill="white"/>
</mask>
<g mask="url(#mask0_13246_2110)">
<path d="M59.4743 0.639648H63.8228C63.9319 0.639648 64.0365 0.683033 64.1137 0.76026C64.1908 0.837485 64.2342 0.942225 64.2342 1.05144V31.977C64.2342 32.0862 64.1908 32.1909 64.1137 32.2681C64.0365 32.3453 63.9319 32.3888 63.8228 32.3888H59.4743C59.3652 32.3888 59.2605 32.3453 59.1834 32.2681C59.1063 32.1909 59.063 32.0862 59.063 31.977V1.05144C59.063 0.942225 59.1063 0.837485 59.1834 0.76026C59.2605 0.683033 59.3652 0.639648 59.4743 0.639648Z" fill="#E5E9FF"/>
<path d="M71.047 3.13254C70.9612 3.03504 70.8558 2.95694 70.7375 2.90344C70.6193 2.84993 70.4911 2.82227 70.3613 2.82227C70.2315 2.82227 70.1033 2.84993 69.9851 2.90344C69.8669 2.95694 69.7613 3.03504 69.6757 3.13254L66.981 6.18941C66.8822 6.30197 66.8178 6.44065 66.7957 6.58888C66.7735 6.73709 66.7945 6.88856 66.8562 7.02512C66.9179 7.1617 67.0175 7.2776 67.1432 7.35894C67.269 7.44029 67.4154 7.48364 67.5652 7.4838H73.1547C73.3043 7.48364 73.4509 7.44029 73.5767 7.35894C73.7023 7.2776 73.802 7.1617 73.8637 7.02512C73.9253 6.88856 73.9463 6.73709 73.9242 6.58888C73.902 6.44065 73.8377 6.30197 73.7389 6.18941L71.047 3.13254Z" fill="#E5E9FF"/>
<path d="M72.5332 10.3359H68.1889C67.9586 10.3359 67.772 10.5228 67.772 10.7532V31.9838C67.772 32.2142 67.9586 32.4011 68.1889 32.4011H72.5332C72.7634 32.4011 72.9501 32.2142 72.9501 31.9838V10.7532C72.9501 10.5228 72.7634 10.3359 72.5332 10.3359Z" fill="#E5E9FF"/>
<path d="M22.2091 9.79025C19.7874 9.79025 17.6536 10.7511 15.864 12.6412C14.0745 10.7497 11.9407 9.79025 9.51897 9.79025C8.32791 9.78192 7.14781 10.0183 6.0517 10.4849C4.95559 10.9514 3.96678 11.6382 3.14648 12.5026C1.49181 14.2659 0.581459 16.6008 0.605443 19.0199V31.9844C0.605443 32.0936 0.648783 32.1984 0.725934 32.2756C0.803086 32.3529 0.907727 32.3962 1.01684 32.3962H5.31864C5.42775 32.3962 5.5324 32.3529 5.60954 32.2756C5.6867 32.1984 5.73004 32.0936 5.73004 31.9844V19.0199C5.70937 17.9544 6.08302 16.919 6.7791 16.1126C7.12744 15.7372 7.54939 15.4379 8.01857 15.2331C8.48776 15.0283 8.9941 14.9226 9.50594 14.9226C10.0178 14.9226 10.5241 15.0283 10.9933 15.2331C11.4625 15.4379 11.8845 15.7372 12.2328 16.1126C12.9284 16.9193 13.3019 17.9545 13.2818 19.0199V31.9844C13.2818 32.0936 13.3253 32.1984 13.4024 32.2756C13.4795 32.3529 13.5841 32.3962 13.6933 32.3962H17.9965C18.051 32.3971 18.1053 32.3871 18.1559 32.3669C18.2067 32.3465 18.2528 32.3164 18.2918 32.2781C18.3307 32.2398 18.3616 32.194 18.3827 32.1436C18.4038 32.0932 18.4147 32.0391 18.4147 31.9844V19.0199C18.3944 17.9548 18.7675 16.9195 19.4624 16.1126C19.8108 15.7372 20.2329 15.4378 20.7023 15.233C21.1715 15.0282 21.6779 14.9225 22.1899 14.9225C22.7018 14.9225 23.2083 15.0282 23.6776 15.233C24.1469 15.4378 24.5689 15.7372 24.9175 16.1126C25.6129 16.9193 25.9865 17.9545 25.9665 19.0199V31.9844C25.9665 32.0936 26.0098 32.1984 26.087 32.2756C26.1641 32.3529 26.2688 32.3962 26.3779 32.3962H30.681C30.7901 32.3962 30.8948 32.3529 30.9719 32.2756C31.0491 32.1984 31.0925 32.0936 31.0925 31.9844V19.0199C31.1164 16.6011 30.2066 14.2663 28.5528 12.5026C27.7357 11.6418 26.7516 10.9573 25.6607 10.4908C24.5698 10.0244 23.3953 9.78603 22.2091 9.79025Z" fill="#E5E9FF"/>
<path d="M56.0066 19.0745C55.9134 18.4132 55.7759 17.7588 55.5951 17.1159C55.2059 15.7222 54.5445 14.4196 53.6492 13.2834C52.7224 12.1212 51.5521 11.1766 50.221 10.5162C48.8318 9.8134 47.1164 9.45651 45.1225 9.45651C43.5167 9.44244 41.9246 9.75194 40.4408 10.3666C39.0464 10.9465 37.7837 11.8028 36.7286 12.884C35.6799 13.9749 34.852 15.2585 34.2905 16.6642C33.8825 17.717 33.6106 18.8175 33.4814 19.9393C33.4288 20.4148 33.4036 20.8928 33.4059 21.371C33.4029 22.971 33.677 24.5593 34.2164 26.0654C34.6481 27.2829 35.2988 28.411 36.1362 29.3941C36.3172 29.6 36.6765 29.9939 36.8685 30.1833C37.8389 31.125 38.9815 31.8706 40.2337 32.3795C40.758 32.5974 41.298 32.7754 41.8491 32.9121C42.9054 33.1684 43.9889 33.2952 45.0758 33.2896C47.7279 33.2896 50.0509 32.6843 51.9831 31.4873L52.0325 31.4571C53.0474 30.8188 53.953 30.0212 54.7148 29.0949C54.7942 28.9988 54.9602 28.7914 55.0822 28.6378C55.1131 28.5996 55.1359 28.5556 55.1494 28.5084C55.1628 28.4613 55.1666 28.4119 55.1605 28.3632C55.1551 28.3145 55.1404 28.2674 55.1168 28.2245C55.0932 28.1818 55.0615 28.1439 55.0234 28.1134L51.8666 25.7113C51.8024 25.661 51.7231 25.6339 51.6417 25.6344C51.5874 25.6351 51.5339 25.6478 51.4851 25.6714C51.4362 25.6952 51.3932 25.7294 51.3591 25.7716L51.2536 25.8939C50.3225 26.922 49.5504 27.4038 48.8044 27.8594C47.8435 28.4352 46.74 28.7288 45.6202 28.7064C44.9702 28.7068 44.3226 28.6299 43.6908 28.4771C43.4371 28.4154 43.1916 28.3399 42.9612 28.2644C42.3601 28.0738 41.7809 27.8198 41.2334 27.5066C41.0524 27.3964 40.8788 27.2744 40.7137 27.1415C40.6067 27.0523 40.4956 26.9576 40.3764 26.8505C39.8831 26.4294 39.4717 25.9208 39.1627 25.3503C39.0184 25.076 38.8999 24.7888 38.8089 24.4924C38.7172 24.1895 38.6535 23.879 38.6182 23.5644H55.8077C55.9057 23.5644 55.9996 23.5256 56.069 23.4564C56.1385 23.3872 56.1776 23.2933 56.1779 23.1952C56.1779 23.1266 56.193 21.5124 56.1697 20.9056C56.1588 20.4856 56.0957 19.728 56.0066 19.0745ZM44.9894 14.0535C46.0988 14.0535 47.0464 14.247 47.7992 14.6286C48.527 14.9885 49.1669 15.5039 49.6738 16.1385C50.1646 16.7645 50.5267 17.4815 50.7394 18.2483C50.8038 18.4775 50.86 18.715 50.9066 18.9565H38.7019C38.9732 17.8236 39.5412 16.7836 40.3475 15.9436C40.9287 15.3485 41.6242 14.8774 42.3921 14.5586C43.2156 14.2188 44.0988 14.0484 44.9894 14.0576V14.0535Z" fill="#E5E9FF"/>
<path d="M90.064 35.9785H84.4746C84.3246 35.9784 84.1778 36.0217 84.0518 36.1031C83.9258 36.1845 83.8259 36.3006 83.7642 36.4375C83.7026 36.5743 83.6817 36.7261 83.704 36.8745C83.7263 37.023 83.7911 37.1617 83.8903 37.2743L86.585 40.3312C86.6706 40.4288 86.776 40.5071 86.8942 40.5607C87.0126 40.6144 87.1409 40.6421 87.2707 40.6421C87.4005 40.6421 87.5288 40.6144 87.647 40.5607C87.7653 40.5071 87.8708 40.4288 87.9563 40.3312L90.6509 37.2743C90.7501 37.1618 90.8149 37.0232 90.8372 36.8748C90.8597 36.7265 90.8389 36.5748 90.7773 36.4381C90.7159 36.3013 90.6162 36.1852 90.4905 36.1036C90.3647 36.0222 90.218 35.9787 90.0681 35.9785H90.064Z" fill="#E5E9FF"/>
<path d="M98.1976 16.7231C97.6126 15.3168 96.7688 14.033 95.7101 12.9386C94.6483 11.8491 93.384 10.9776 91.9883 10.3732C90.5301 9.75632 88.9631 9.43848 87.38 9.43848C85.7968 9.43848 84.2298 9.75632 82.7717 10.3732C81.3758 10.9772 80.1115 11.8488 79.05 12.9386C77.9911 14.0331 77.1467 15.3169 76.5611 16.7231C75.951 18.1954 75.6427 19.7755 75.6546 21.3694C75.6446 22.9699 75.9527 24.5563 76.5611 26.0364C77.7173 28.8819 79.9494 31.1551 82.7717 32.3615C84.2298 32.9784 85.7968 33.2963 87.38 33.2963C88.9631 33.2963 90.5301 32.9784 91.9883 32.3615C94.8106 31.1551 97.0427 28.8819 98.199 26.0364C98.8065 24.5561 99.1145 22.9698 99.1054 21.3694C99.1167 19.7754 98.8081 18.1953 98.1976 16.7231ZM81.0562 21.3694C81.0475 20.4234 81.1986 19.4826 81.5032 18.5871C81.7733 17.7853 82.2014 17.046 82.7621 16.4129C83.3166 15.804 83.9938 15.3198 84.7492 14.9922C86.4372 14.2948 88.3324 14.2948 90.0204 14.9922C90.7756 15.3206 91.4531 15.8048 92.0088 16.4129C92.5684 17.0469 92.9963 17.786 93.2677 18.5871C93.862 20.3943 93.862 22.3445 93.2677 24.1518C92.9966 24.9531 92.5687 25.6922 92.0088 26.326C91.4531 26.9341 90.7756 27.4182 90.0204 27.7466C88.3321 28.4421 86.4376 28.4421 84.7492 27.7466C83.9944 27.4181 83.3174 26.9341 82.7621 26.326C82.2014 25.6929 81.7733 24.9535 81.5032 24.1518C81.1968 23.2564 81.0437 22.3158 81.0507 21.3694H81.0562Z" fill="#E5E9FF"/>
</g>
</g>
<defs>
<clipPath id="clip0_13246_2110">
<rect width="100" height="40" fill="white" transform="translate(0 0.639648)"/>
</clipPath>
</defs>
</svg>
