<svg width="85" height="41" viewBox="0 0 85 41" fill="none" xmlns="http://www.w3.org/2000/svg">
<g clip-path="url(#clip0_13246_2115)">
<path fill-rule="evenodd" clip-rule="evenodd" d="M14.7353 18.6411V6.81592L10.143 15.6218H8.26088L3.6686 6.81592V18.6411H0.205566V0.77756H3.91955L9.18936 10.9421L14.5094 0.77756H18.1983V18.6411H14.7353ZM21.2174 18.6409V5.45712H24.5801V18.6409H21.2174ZM21.2174 3.62068V0.274414H24.5801V3.62068H21.2174ZM32.2158 18.8929C31.1117 18.8929 30.0327 18.7167 28.9787 18.3645C27.9247 18.0123 27.0213 17.5091 26.2685 16.855L27.5232 14.7415C28.3263 15.3118 29.1083 15.7437 29.8696 16.0372C30.6307 16.3307 31.3878 16.4775 32.1406 16.4775C32.8098 16.4775 33.3367 16.3517 33.7216 16.1001C34.1063 15.8485 34.2987 15.4879 34.2987 15.0183C34.2987 14.5486 34.0729 14.2047 33.6212 13.9867C33.1694 13.7687 32.4334 13.5171 31.4129 13.2319C30.5596 12.9971 29.8319 12.7707 29.2296 12.5526C28.6274 12.3345 28.1422 12.0872 27.7742 11.8104C27.4061 11.5336 27.1384 11.215 26.9712 10.8543C26.8038 10.4937 26.7202 10.0618 26.7202 9.55861C26.7202 8.88764 26.8498 8.28385 27.1092 7.74709C27.3685 7.21033 27.7323 6.75325 28.2007 6.37585C28.6692 5.99846 29.2171 5.70912 29.8445 5.50784C30.4718 5.30656 31.1536 5.20592 31.8896 5.20592C32.8767 5.20592 33.801 5.3485 34.6626 5.63364C35.5242 5.91879 36.3146 6.38005 37.034 7.01743L35.679 9.05536C35.0097 8.55219 34.3614 8.18316 33.7341 7.94833C33.1067 7.7135 32.4836 7.59612 31.8645 7.59612C31.2958 7.59612 30.8189 7.7135 30.4342 7.94833C30.0494 8.18316 29.857 8.56054 29.857 9.08054C29.857 9.31536 29.903 9.50826 29.995 9.65923C30.087 9.81019 30.2334 9.94433 30.4342 10.0618C30.6349 10.1792 30.8984 10.2924 31.2247 10.4014C31.5509 10.5105 31.9565 10.6237 32.4417 10.7411C33.3452 10.9759 34.1189 11.2107 34.763 11.4456C35.4071 11.6804 35.9341 11.9487 36.3439 12.2507C36.7538 12.5526 37.0549 12.9006 37.2473 13.2948C37.4397 13.689 37.5359 14.1628 37.5359 14.7163C37.5359 16.0079 37.0591 17.0269 36.1055 17.7733C35.1519 18.5197 33.8554 18.8929 32.2158 18.8929ZM44.3189 18.8929C43.2148 18.8929 42.1358 18.7167 41.0818 18.3645C40.0278 18.0123 39.1244 17.5091 38.3716 16.855L39.6263 14.7415C40.4294 15.3118 41.2114 15.7437 41.9727 16.0372C42.7338 16.3307 43.4909 16.4775 44.2437 16.4775C44.9129 16.4775 45.4398 16.3517 45.8247 16.1001C46.2094 15.8485 46.4018 15.4879 46.4018 15.0183C46.4018 14.5486 46.176 14.2047 45.7243 13.9867C45.2725 13.7687 44.5365 13.5171 43.516 13.2319C42.6627 12.9971 41.935 12.7707 41.3327 12.5526C40.7305 12.3345 40.2453 12.0872 39.8772 11.8104C39.5092 11.5336 39.2415 11.215 39.0743 10.8543C38.9069 10.4937 38.8233 10.0618 38.8233 9.55861C38.8233 8.88764 38.9529 8.28385 39.2123 7.74709C39.4716 7.21033 39.8354 6.75325 40.3038 6.37585C40.7723 5.99846 41.3202 5.70912 41.9476 5.50784C42.5749 5.30656 43.2566 5.20592 43.9927 5.20592C44.9798 5.20592 45.9041 5.3485 46.7657 5.63364C47.6273 5.91879 48.4177 6.38005 49.1371 7.01743L47.782 9.05536C47.1128 8.55219 46.4645 8.18316 45.8372 7.94833C45.2098 7.7135 44.5867 7.59612 43.9676 7.59612C43.3988 7.59612 42.9221 7.7135 42.5373 7.94833C42.1525 8.18316 41.9601 8.56054 41.9601 9.08054C41.9601 9.31536 42.0061 9.50826 42.0981 9.65923C42.1901 9.81019 42.3365 9.94433 42.5373 10.0618C42.7381 10.1792 43.0015 10.2924 43.3278 10.4014C43.654 10.5105 44.0596 10.6237 44.5448 10.7411C45.4483 10.9759 46.222 11.2107 46.8661 11.4456C47.5102 11.6804 48.0372 11.9487 48.447 12.2507C48.8569 12.5526 49.1581 12.9006 49.3504 13.2948C49.5428 13.689 49.639 14.1628 49.639 14.7163C49.639 16.0079 49.1622 17.0269 48.2086 17.7733C47.255 18.5197 45.9585 18.8929 44.3189 18.8929ZM51.4526 18.6409V5.45712H54.8152V18.6409H51.4526ZM51.4526 3.62068V0.274414H54.8152V3.62068H51.4526ZM63.5557 18.8925C62.485 18.8925 61.5231 18.708 60.6698 18.3389C59.8167 17.9699 59.0931 17.471 58.4992 16.8419C57.9053 16.213 57.4494 15.4875 57.1316 14.6656C56.8137 13.8437 56.6547 12.9799 56.6547 12.0741C56.6547 11.1516 56.8137 10.2794 57.1316 9.4575C57.4494 8.63564 57.9053 7.91019 58.4992 7.28123C59.0931 6.6522 59.8167 6.1532 60.6698 5.78419C61.5231 5.41517 62.485 5.23067 63.5557 5.23067C64.6265 5.23067 65.5842 5.41517 66.429 5.78419C67.2739 6.1532 67.9933 6.6522 68.5872 7.28123C69.1814 7.91019 69.6372 8.63564 69.9552 9.4575C70.2724 10.2794 70.4317 11.1516 70.4317 12.0741C70.4317 12.9799 70.2724 13.8437 69.9552 14.6656C69.6372 15.4875 69.1855 16.213 68.5997 16.8419C68.0142 17.471 67.2948 17.9699 66.4416 18.3389C65.5884 18.708 64.6265 18.8925 63.5557 18.8925ZM60.1182 12.0747C60.1182 12.6618 60.2061 13.1944 60.3817 13.6724C60.5574 14.1505 60.8 14.5656 61.1094 14.9178C61.419 15.2701 61.7828 15.5426 62.2011 15.7355C62.6193 15.9284 63.071 16.0249 63.5562 16.0249C64.0414 16.0249 64.493 15.9284 64.9113 15.7355C65.3295 15.5426 65.6934 15.2701 66.0029 14.9178C66.3124 14.5656 66.5549 14.1463 66.7306 13.6598C66.9063 13.1734 66.9941 12.6367 66.9941 12.0496C66.9941 11.4793 66.9063 10.951 66.7306 10.4645C66.5549 9.97812 66.3124 9.55881 66.0029 9.20654C65.6934 8.85433 65.3295 8.58171 64.9113 8.38881C64.493 8.19598 64.0414 8.0995 63.5562 8.0995C63.071 8.0995 62.6193 8.20012 62.2011 8.40143C61.7828 8.60267 61.419 8.87943 61.1094 9.23171C60.8 9.58392 60.5574 10.0033 60.3817 10.4897C60.2061 10.9761 60.1182 11.5045 60.1182 12.0747ZM84.5427 18.6409H81.18V11.2438C81.18 10.1872 80.9958 9.41557 80.6276 8.92916C80.26 8.44274 79.7496 8.1995 79.0972 8.1995C78.7627 8.1995 78.4193 8.26661 78.0683 8.40081C77.7165 8.53502 77.3862 8.72371 77.0772 8.96688C76.7676 9.21012 76.4869 9.49943 76.2365 9.83495C75.9855 10.1704 75.8014 10.5394 75.6841 10.942V18.6409H72.3214V5.45711H75.3579V7.89764C75.8427 7.05895 76.5455 6.4048 77.4662 5.93514C78.3862 5.4655 79.4234 5.23067 80.5772 5.23067C81.3972 5.23067 82.0662 5.38163 82.5848 5.68355C83.1034 5.98547 83.5055 6.37963 83.7896 6.86606C84.0738 7.35247 84.2703 7.90598 84.3793 8.52661C84.4883 9.14723 84.5427 9.77619 84.5427 10.4136V18.6409ZM0.205566 39.4321V21.5686H3.6686V36.3878H12.7528V39.4321H0.205566ZM17.8163 39.6835C17.1805 39.6835 16.5866 39.5787 16.0345 39.369C15.4825 39.1594 15.0056 38.8658 14.6041 38.4885C14.2026 38.111 13.8889 37.6707 13.6631 37.1676C13.4372 36.6643 13.3243 36.1108 13.3243 35.507C13.3243 34.8864 13.4623 34.3119 13.7384 33.7836C14.0144 33.2552 14.3992 32.8065 14.8927 32.4375C15.3863 32.0685 15.976 31.7792 16.6619 31.5695C17.3478 31.3598 18.1007 31.255 18.9204 31.255C19.5059 31.255 20.0789 31.3053 20.6394 31.4059C21.1998 31.5066 21.6975 31.6492 22.1325 31.8336V31.0789C22.1325 30.2067 21.8857 29.5357 21.3922 29.0661C20.8987 28.5964 20.1667 28.3616 19.1965 28.3616C18.4938 28.3616 17.8078 28.4874 17.1387 28.739C16.4695 28.9906 15.7836 29.3596 15.0809 29.8461L14.0521 27.7074C15.7418 26.5836 17.5653 26.0217 19.5227 26.0217C21.4132 26.0217 22.8812 26.4872 23.9267 27.4181C24.9723 28.349 25.4952 29.6951 25.4952 31.4563V35.5573C25.4952 35.9096 25.5579 36.1612 25.6834 36.3121C25.8088 36.4631 26.0138 36.547 26.2982 36.5637V39.4319C25.7294 39.5494 25.2358 39.6081 24.8176 39.6081C24.1818 39.6081 23.6925 39.4655 23.3496 39.1803C23.0066 38.8952 22.7933 38.5178 22.7096 38.0481L22.6344 37.3185C22.0488 38.0901 21.3378 38.6772 20.5014 39.0797C19.6649 39.4823 18.7698 39.6835 17.8163 39.6835ZM18.7076 37.218C19.2764 37.218 19.8159 37.1173 20.3262 36.9161C20.8365 36.7147 21.2338 36.4464 21.5182 36.111C21.8863 35.8258 22.0703 35.5071 22.0703 35.1549V33.6453C21.6687 33.4943 21.2338 33.3727 20.7654 33.2805C20.2969 33.1882 19.8452 33.1421 19.4103 33.1421C18.5403 33.1421 17.8293 33.3392 17.2772 33.7333C16.7252 34.1275 16.4491 34.6265 16.4491 35.2303C16.4491 35.8006 16.6666 36.2745 17.1016 36.6518C17.5365 37.0293 18.0719 37.218 18.7076 37.218ZM40.422 39.4319H37.0593V32.035C37.0593 30.9782 36.8753 30.2067 36.5072 29.7202C36.1392 29.2338 35.6289 28.9906 34.9765 28.9906C34.6418 28.9906 34.299 29.0577 33.9476 29.1918C33.5963 29.3261 33.2658 29.5147 32.9564 29.758C32.6469 30.0012 32.3667 30.2905 32.1157 30.626C31.8647 30.9614 31.6807 31.3305 31.5636 31.733V39.4319H28.2009V26.2482H31.2374V28.6887C31.7225 27.85 32.4252 27.1958 33.3453 26.7262C34.2654 26.2565 35.3027 26.0217 36.457 26.0217C37.2768 26.0217 37.946 26.1727 38.4646 26.4746C38.9832 26.7765 39.3847 27.1707 39.6692 27.6571C39.9536 28.1436 40.1501 28.6971 40.2589 29.3176C40.3676 29.9383 40.422 30.5673 40.422 31.2047V39.4319ZM49.0865 39.6835C48.0325 39.6835 47.0789 39.5032 46.2257 39.1426C45.3725 38.782 44.6448 38.2914 44.0425 37.6707C43.4403 37.0501 42.976 36.3289 42.6498 35.507C42.3236 34.6851 42.1604 33.8213 42.1604 32.9155C42.1604 31.9762 42.3194 31.0914 42.6372 30.2612C42.9551 29.4309 43.4152 28.7012 44.0174 28.0723C44.6197 27.4432 45.3516 26.9443 46.2132 26.5752C47.0747 26.2063 48.0409 26.0217 49.1116 26.0217C50.1823 26.0217 51.14 26.2063 51.9849 26.5752C52.8298 26.9443 53.5492 27.4391 54.143 28.0596C54.7369 28.6803 55.1887 29.4015 55.4981 30.2234C55.8076 31.0453 55.9624 31.9007 55.9624 32.7897C55.9624 33.0078 55.9582 33.2174 55.9498 33.4187C55.9415 33.62 55.9205 33.7877 55.8871 33.9219H45.7238C45.7741 34.4419 45.8995 34.9032 46.1003 35.3057C46.301 35.7083 46.5603 36.0521 46.8782 36.3373C47.196 36.6224 47.5557 36.8405 47.9572 36.9914C48.3587 37.1424 48.777 37.2178 49.212 37.2178C49.8812 37.2178 50.5127 37.0543 51.1066 36.7272C51.7005 36.4002 52.1062 35.9683 52.3237 35.4315L55.2096 36.2366C54.7244 37.243 53.9507 38.0691 52.8883 38.7149C51.826 39.3607 50.5587 39.6835 49.0865 39.6835ZM52.5002 31.7332C52.4165 30.7436 52.0527 29.951 51.4086 29.3556C50.7645 28.7601 49.9824 28.4624 49.0623 28.4624C48.6105 28.4624 48.1881 28.5421 47.7949 28.7014C47.4018 28.8608 47.0547 29.083 46.7536 29.3682C46.4524 29.6533 46.2056 29.9972 46.0133 30.3997C45.8209 30.8023 45.708 31.2467 45.6745 31.7332H52.5002Z" fill="#E5E9FF"/>
</g>
<defs>
<clipPath id="clip0_13246_2115">
<rect width="84.8276" height="40" fill="white" transform="translate(0 0.175781)"/>
</clipPath>
</defs>
</svg>
