<svg width="160" height="33" viewBox="0 0 160 33" fill="none" xmlns="http://www.w3.org/2000/svg">
<g clip-path="url(#clip0_13246_2111)">
<mask id="mask0_13246_2111" style="mask-type:luminance" maskUnits="userSpaceOnUse" x="0" y="0" width="160" height="33">
<path d="M0 0.639648H160V32.6397H0V0.639648Z" fill="white"/>
</mask>
<g mask="url(#mask0_13246_2111)">
<path d="M148.958 27.5034L143.032 13.889H147L151.048 23.6506L155.723 13.8906H159.626L150.406 32.6394H146.432L148.958 27.5034ZM134.522 24.681C135.213 24.5249 135.851 24.19 136.373 23.7098C136.63 23.4751 136.85 23.2085 137.032 22.9098C137.219 22.5973 137.361 22.2655 137.459 21.9146C137.571 21.5295 137.626 21.137 137.624 20.737C137.625 20.3334 137.57 19.9316 137.459 19.5434C137.358 19.1941 137.212 18.8595 137.024 18.5482C136.662 17.9527 136.144 17.4683 135.525 17.1482C135.205 16.9882 134.87 16.8677 134.522 16.7866C134.154 16.7017 133.779 16.6604 133.402 16.6634C133.028 16.6611 132.655 16.7025 132.291 16.7866C131.947 16.8666 131.617 16.9871 131.302 17.1482C130.674 17.4609 130.148 17.9466 129.787 18.5482C129.6 18.859 129.457 19.1938 129.36 19.5434C129.258 19.9328 129.208 20.3343 129.213 20.737C129.209 21.137 129.258 21.5295 129.36 21.9146C129.456 22.2634 129.599 22.5925 129.789 22.9018C129.968 23.2037 130.187 23.473 130.446 23.7098C130.706 23.9423 130.988 24.1423 131.294 24.3098C131.607 24.4773 131.936 24.6005 132.282 24.6794C133.018 24.8561 133.785 24.8561 134.522 24.6794M130.512 27.7242C129.906 27.5702 129.322 27.3378 128.776 27.033C127.709 26.4331 126.829 25.5499 126.232 24.481C125.923 23.9297 125.688 23.3401 125.533 22.7274C125.209 21.411 125.209 20.0358 125.533 18.7194C125.688 18.1098 125.923 17.5226 126.232 16.9754C126.833 15.9119 127.713 15.0324 128.776 14.4314C129.322 14.1266 129.906 13.8942 130.512 13.7402C131.163 13.5742 131.832 13.4909 132.504 13.4922C132.867 13.4922 133.229 13.5141 133.592 13.5578C134.231 13.6367 134.855 13.8092 135.443 14.0698C135.709 14.1818 135.964 14.313 136.208 14.4634C136.443 14.6074 136.66 14.7722 136.859 14.9578C137.043 15.137 137.213 15.329 137.37 15.5338V13.889H141.139V27.577H137.37V25.9306C136.863 26.5755 136.203 27.0846 135.451 27.4122C135.015 27.5998 134.56 27.7382 134.093 27.825C133.568 27.9242 133.038 27.9733 132.504 27.9722C131.832 27.9754 131.163 27.8922 130.512 27.7258M116.824 17.3546C117.365 17.3658 117.906 17.305 118.43 17.1738C118.84 17.0715 119.223 16.8804 119.55 16.6138C119.844 16.3678 120.07 16.0505 120.206 15.6922C120.354 15.2826 120.422 14.8506 120.414 14.417C120.421 13.985 120.349 13.553 120.198 13.1482C120.063 12.7918 119.836 12.4773 119.541 12.2362C119.214 11.9759 118.835 11.7877 118.43 11.6842C117.906 11.5495 117.366 11.4854 116.824 11.4938H113.12V17.3546H116.824ZM109.219 8.2666H117.195C118.445 8.2666 119.532 8.42073 120.454 8.729C121.376 9.0362 122.133 9.4586 122.726 9.9962C123.318 10.5354 123.776 11.2058 124.059 11.9546C124.355 12.7443 124.503 13.5817 124.496 14.425C124.507 15.268 124.358 16.1056 124.059 16.8938C123.772 17.6361 123.316 18.3011 122.726 18.8362C122.129 19.3845 121.372 19.8127 120.454 20.121C119.533 20.4282 118.446 20.5818 117.195 20.5818H113.12V27.577H109.219V8.2666ZM92.4608 13.8826H96.2048V15.5274C96.4384 15.2063 96.7104 14.9237 97.0209 14.6794C97.3483 14.4191 97.7024 14.2026 98.0832 14.0298C98.5016 13.8411 98.941 13.703 99.3921 13.6186C99.8934 13.5258 100.398 13.4815 100.906 13.4858C101.699 13.4746 102.49 13.609 103.235 13.881C103.899 14.1253 104.501 14.5132 104.997 15.017C105.494 15.5402 105.872 16.1674 106.101 16.8522C106.363 17.641 106.491 18.4682 106.478 19.297V27.569H102.75V20.2682C102.759 19.7328 102.683 19.1994 102.526 18.6874C102.397 18.2666 102.182 17.8772 101.894 17.5434C101.615 17.2362 101.264 17.0017 100.874 16.8602C100.43 16.7002 99.9616 16.6218 99.4896 16.6298C99.0189 16.6247 98.5509 16.7026 98.1073 16.8602C97.7137 17.0006 97.3605 17.2351 97.0785 17.5434C96.7888 17.8794 96.5729 18.2714 96.4448 18.6954C96.2902 19.2023 96.2151 19.7302 96.2225 20.2602V27.569H92.4625L92.4608 13.8826ZM83.2433 24.6474C83.5999 24.5582 83.9451 24.4282 84.272 24.2602C84.5846 24.0991 84.8673 23.8965 85.1201 23.6522C85.3697 23.4079 85.583 23.1359 85.76 22.8362C85.9414 22.5269 86.0737 22.1978 86.1569 21.849C86.2454 21.4757 86.2891 21.097 86.2881 20.713C86.2902 20.3269 86.2465 19.9455 86.1569 19.569C85.99 18.8834 85.6295 18.2603 85.1185 17.7738C84.8653 17.5307 84.5799 17.3234 84.2705 17.1578C83.9467 16.9839 83.6013 16.8537 83.2433 16.7706C82.8546 16.6803 82.4567 16.6357 82.0577 16.6378C81.6613 16.6363 81.2661 16.6809 80.8801 16.7706C80.5206 16.8517 80.1777 16.9807 79.8513 17.1578C79.5456 17.3256 79.2632 17.5327 79.0113 17.7738C78.7617 18.0149 78.5537 18.2869 78.3873 18.5898C78.2166 18.9002 78.0843 19.2266 77.9905 19.569C77.8945 19.9434 77.8481 20.3247 77.8513 20.713C77.8491 21.0981 77.8955 21.4767 77.9905 21.849C78.0822 22.1935 78.2139 22.5226 78.3857 22.8362C78.5553 23.1413 78.7638 23.4159 79.0113 23.6602C79.2683 23.9013 79.5537 24.0986 79.8673 24.2522C80.5476 24.6073 81.3064 24.7856 82.0737 24.7706C82.4747 24.7749 82.8694 24.7311 83.2577 24.6394M79.8592 27.7178C79.1839 27.5624 78.5292 27.3277 77.9089 27.0186C77.3264 26.725 76.7865 26.3536 76.3041 25.9146C75.3527 25.0551 74.6671 23.9415 74.3281 22.705C73.9686 21.3932 73.9686 20.0088 74.3281 18.697C74.6706 17.4639 75.3558 16.3532 76.3041 15.4938C76.784 15.0522 77.3249 14.6778 77.9089 14.3834C78.5318 14.0741 79.1824 13.841 79.8608 13.6842C81.3232 13.351 82.8417 13.351 84.3041 13.6842C84.9761 13.8378 85.6305 14.073 86.2465 14.3834C86.8273 14.6826 87.3665 15.0554 87.8513 15.4938C88.3281 15.9178 88.7441 16.4058 89.0865 16.9434C89.4273 17.4874 89.688 18.0778 89.8608 18.697C90.2192 20.009 90.2192 21.393 89.8608 22.705C89.5092 23.9439 88.8122 25.0572 87.8513 25.9146C87.3665 26.3498 86.8273 26.7194 86.2465 27.0186C85.6318 27.3279 84.9824 27.5626 84.312 27.7178C82.8489 28.0485 81.3304 28.0485 79.8673 27.7178M65.2496 24.6394C65.6081 24.5498 65.951 24.4207 66.2785 24.2522C66.5921 24.0911 66.8747 23.8885 67.1264 23.6442C67.376 23.3999 67.5899 23.1279 67.7681 22.8282C67.9494 22.5189 68.0811 22.1898 68.1633 21.841C68.2529 21.4677 68.2966 21.089 68.2944 20.705C68.2968 20.3198 68.2527 19.9357 68.1633 19.561C67.9968 18.8756 67.6369 18.2525 67.1264 17.7658C66.8734 17.5221 66.588 17.3143 66.2785 17.1482C65.9541 16.9747 65.6081 16.8451 65.2496 16.7626C64.8615 16.6724 64.4641 16.6278 64.0657 16.6298C63.6693 16.6283 63.2741 16.6729 62.8881 16.7626C62.5265 16.8437 62.1835 16.9722 61.8593 17.1482C61.5535 17.3165 61.2711 17.5242 61.0193 17.7658C60.7697 18.0069 60.5611 18.2789 60.3937 18.5818C60.223 18.8922 60.0913 19.2186 59.9985 19.561C59.9014 19.9354 59.8545 20.3167 59.8577 20.705C59.8555 21.0901 59.9025 21.4687 59.9985 21.841C60.0891 22.1866 60.2208 22.5157 60.3937 22.8282C60.5622 23.1333 60.7702 23.4074 61.0177 23.6506C61.2683 23.8917 61.5489 24.0922 61.8593 24.2522C62.5391 24.607 63.2973 24.7853 64.0641 24.7706C64.4651 24.7749 64.8603 24.7311 65.2496 24.6394ZM61.8417 27.7258C61.1663 27.5704 60.5116 27.3357 59.8913 27.0266C59.3088 26.733 58.7689 26.3616 58.2865 25.9226C57.8172 25.4992 57.41 25.0118 57.0769 24.4746C56.7403 23.9261 56.4823 23.3332 56.3105 22.713C55.951 21.4012 55.951 20.0168 56.3105 18.705C56.481 18.0869 56.739 17.4964 57.0769 16.9514C57.4129 16.4154 57.8193 15.9274 58.2865 15.5034C58.7665 15.0602 59.3073 14.6874 59.8913 14.3914C60.5142 14.0821 61.1649 13.849 61.8433 13.6922C63.3056 13.359 64.8241 13.359 66.2865 13.6922C66.9595 13.849 67.6049 14.0821 68.2225 14.3914C68.8049 14.689 69.3473 15.0634 69.8337 15.5034C70.3105 15.9258 70.7265 16.4138 71.0689 16.9514C71.4065 17.4954 71.6657 18.0874 71.8353 18.705C72.1937 20.017 72.1937 21.401 71.8353 22.713C71.4925 23.9539 70.7972 25.0688 69.8337 25.9226C69.3453 26.3578 68.8033 26.7288 68.2209 27.0266C67.6075 27.3359 66.9654 27.569 66.2944 27.7258C64.8313 28.0565 63.3128 28.0565 61.8496 27.7258M32.2769 8.2682H36.2289L42.9601 18.5642L49.7441 8.2682H53.6929V27.577H49.7841V14.3354L44.1873 22.8794H41.8001L36.2033 14.3354V27.5866H32.2929L32.2769 8.2682Z" fill="#E5E9FF"/>
<path d="M23.2882 11.7246C24.3338 11.7246 25.3366 11.3093 26.0759 10.5699C26.8153 9.8306 27.2306 8.82783 27.2306 7.78224C27.2306 6.73665 26.8153 5.73389 26.0759 4.99455C25.3366 4.2552 24.3338 3.83984 23.2882 3.83984C22.2426 3.83984 21.2399 4.2552 20.5005 4.99455C19.7612 5.73389 19.3458 6.73665 19.3458 7.78224C19.3458 8.82783 19.7612 9.8306 20.5005 10.5699C21.2399 11.3093 22.2426 11.7246 23.2882 11.7246ZM11.197 29.4798C8.64926 29.4777 6.20668 28.4636 4.40663 26.6605C2.60658 24.8575 1.59651 22.4132 1.59864 19.8654C1.60076 17.3177 2.61489 14.8751 4.41794 13.075C6.22099 11.275 8.66526 10.2649 11.213 10.267C13.7608 10.2692 16.2034 11.2833 18.0034 13.0864C19.8035 14.8894 20.8136 17.3337 20.8114 19.8814C20.8093 22.4292 19.7952 24.8718 17.9921 26.6719C16.1891 28.4719 13.7448 29.482 11.197 29.4798Z" fill="#E5E9FF"/>
</g>
</g>
<defs>
<clipPath id="clip0_13246_2111">
<rect width="160" height="32" fill="white" transform="translate(0 0.639648)"/>
</clipPath>
</defs>
</svg>
