<svg width="160" height="27" viewBox="0 0 160 27" fill="none" xmlns="http://www.w3.org/2000/svg">
<g clip-path="url(#clip0_13246_2129)">
<path d="M8.83502 0.0523887C8.74316 0.0178435 8.64584 9.82701e-05 8.5477 0L0.586257 0C0.431031 0 0.282162 0.0616632 0.172401 0.171425C0.0626398 0.281186 0.000976563 0.430054 0.000976562 0.58528L0.000976563 8.88889L8.83502 0.0523887Z" fill="#E5E9FF"/>
<path d="M0.171387 26.4943C0.22575 26.5487 0.290329 26.5919 0.361411 26.6212C0.432494 26.6506 0.508678 26.6656 0.585585 26.6654H8.30392C8.45914 26.6654 8.60801 26.6038 8.71777 26.494C8.82753 26.3842 8.88919 26.2354 8.88919 26.0801V17.7773L0.171387 26.4943Z" fill="#E5E9FF"/>
<path d="M17.7778 8.88867V26.5936L17.831 26.6157L26.6667 17.7776L17.7778 8.88867Z" fill="#E5E9FF"/>
<path d="M8.88986 17.7778V0.0720345C8.87267 0.0638487 8.85466 0.055663 8.83666 0.0491144L0.000976817 8.88889V26.0789C0.000905164 26.1557 0.0159796 26.2317 0.0453366 26.3027C0.0746936 26.3736 0.117756 26.438 0.172059 26.4923L8.88986 17.7778ZM26.6668 17.7778V0.58528C26.6668 0.430054 26.6052 0.281186 26.4954 0.171425C26.3856 0.0616632 26.2368 0 26.0815 0L18.3632 0C18.2081 -1.51679e-07 18.0594 0.0615507 17.9496 0.171135C17.8399 0.280719 17.7781 0.429377 17.7779 0.584461V8.88889L26.6668 17.7778ZM26.6668 17.7778L17.8311 26.6135C17.923 26.648 18.0203 26.6657 18.1185 26.6658H26.0824C26.2376 26.6658 26.3865 26.6042 26.4962 26.4944C26.606 26.3847 26.6676 26.2358 26.6676 26.0806V17.7778H26.6668Z" fill="#E5E9FF"/>
<path d="M9.12933 0.239887C9.0596 0.171294 8.97808 0.115835 8.88867 0.0761719V17.7778L17.5377 26.426C17.6075 26.4946 17.689 26.55 17.7784 26.5898V8.88893L9.12933 0.239887Z" fill="#E5E9FF"/>
</g>
<g clip-path="url(#clip1_13246_2129)">
<path d="M159.609 12.4036H156.969V17.2919C156.969 17.8785 157.067 18.3673 157.36 18.6606C157.556 18.9539 158.045 19.1494 158.631 19.1494C158.827 19.1494 159.022 19.1494 159.316 19.0516H159.413C159.609 19.0516 159.805 19.1494 159.902 19.4427V21.7891C159.902 21.9846 159.805 22.0823 159.609 22.1801C159.413 22.2779 159.12 22.2779 158.827 22.3756C158.338 22.4734 157.947 22.4734 157.458 22.4734C156.578 22.4734 155.894 22.3756 155.307 22.1801C154.721 21.9846 154.232 21.6913 153.939 21.3002C153.548 20.9092 153.352 20.4203 153.157 19.8338C152.961 19.2472 152.961 18.6606 152.961 17.9762V6.53775C152.961 6.34222 153.157 6.1467 153.352 6.1467H156.285C156.578 6.1467 156.774 6.34223 156.774 6.63552L157.067 9.56846H159.707C159.902 9.56846 160.098 9.76399 160.098 9.95952V12.3059C160 12.3059 159.805 12.4036 159.609 12.4036ZM142.305 16.7053C142.305 17.0963 142.402 17.3896 142.598 17.6829C142.793 17.9762 142.989 18.2695 143.282 18.465C143.576 18.6606 143.869 18.8561 144.26 18.9539C144.651 19.0516 144.944 19.1494 145.335 19.1494C146.02 19.1494 146.606 19.0516 146.997 18.7583L147.877 18.1717C148.073 17.9762 148.268 17.9762 148.464 18.1717L150.224 20.0293C150.419 20.2248 150.419 20.5181 150.224 20.6159C149.735 21.0069 149.246 21.398 148.659 21.6913C147.682 22.1801 146.509 22.3756 145.238 22.3756C144.26 22.3756 143.38 22.1801 142.5 21.8868C141.62 21.5935 140.936 21.2025 140.252 20.6159C139.567 20.0293 139.078 19.3449 138.785 18.5628C138.394 17.6829 138.199 16.803 138.199 15.7276C138.199 14.6522 138.394 13.7723 138.687 12.8925C139.078 12.0126 139.567 11.3282 140.154 10.7416C140.74 10.155 141.523 9.66622 142.305 9.37292C143.185 9.07963 144.064 8.8841 145.042 8.8841C146.02 8.8841 146.802 9.07963 147.584 9.37292C148.366 9.66622 149.05 10.155 149.637 10.7416C150.224 11.3282 150.615 12.0126 150.908 12.8925C151.201 13.7723 151.397 14.75 151.397 15.8254V16.803H142.305V16.7053ZM147.095 12.4036C146.704 11.9148 146.02 11.7193 145.238 11.7193C144.847 11.7193 144.455 11.817 144.162 11.9148C143.869 12.0126 143.478 12.2081 143.282 12.4036C142.989 12.5992 142.793 12.8924 142.696 13.1857C142.5 13.479 142.5 13.7723 142.402 14.1634H147.779C147.682 13.479 147.486 12.8925 147.095 12.4036ZM136.439 21.8868H132.919C132.724 21.8868 132.528 21.6913 132.528 21.4957V4.58246C132.528 4.38693 132.724 4.19141 132.919 4.19141H136.439C136.634 4.19141 136.83 4.38693 136.83 4.58246V21.4957C136.732 21.6913 136.634 21.8868 136.439 21.8868ZM129.4 21.8868H125.88C125.685 21.8868 125.489 21.6913 125.489 21.4957V4.58246C125.489 4.38693 125.685 4.19141 125.88 4.19141H129.4C129.595 4.19141 129.791 4.38693 129.791 4.58246V21.4957C129.791 21.6913 129.595 21.8868 129.4 21.8868ZM122.458 21.8868H119.917C119.721 21.8868 119.525 21.789 119.428 21.4957L119.134 20.5181C118.743 20.9092 118.157 21.3002 117.472 21.5935C116.886 21.8868 116.201 22.0823 115.419 22.0823H114.735C113.757 22.0823 112.975 21.8868 112.193 21.4957C111.411 21.1047 110.824 20.6159 110.336 20.0293C109.847 19.4427 109.456 18.6606 109.162 17.8785C108.869 17.0963 108.771 16.2165 108.771 15.3366C108.771 14.4567 108.869 13.5768 109.162 12.7947C109.456 12.0126 109.847 11.3282 110.336 10.6439C110.824 10.0573 111.509 9.56844 112.193 9.17738C112.975 8.78632 113.757 8.68856 114.637 8.68856C115.713 8.68856 116.593 8.88409 117.277 9.17738C117.863 9.47068 118.255 9.76399 118.646 10.0573L118.939 8.8841C119.037 8.68857 119.232 8.49305 119.428 8.49305H122.361C122.556 8.49305 122.752 8.68857 122.752 8.8841V21.3002C122.849 21.6913 122.654 21.8868 122.458 21.8868ZM118.646 14.3589C118.548 13.9679 118.255 13.5768 118.059 13.2835C117.766 12.9902 117.472 12.6969 117.081 12.5014C116.69 12.3059 116.299 12.2081 115.81 12.2081C115.322 12.2081 114.931 12.3059 114.539 12.5014C114.148 12.6969 113.855 12.8924 113.562 13.1857C113.269 13.479 113.073 13.8701 112.975 14.2612C112.877 14.6522 112.78 15.0433 112.78 15.4343C112.78 15.8254 112.877 16.2164 112.975 16.6075C113.073 16.9986 113.269 17.3896 113.562 17.6829C113.855 17.9762 114.148 18.2695 114.539 18.465C114.931 18.6606 115.322 18.7583 115.81 18.7583C116.299 18.7583 116.69 18.6606 117.081 18.465C117.472 18.2695 117.766 18.074 118.059 17.6829C118.352 17.3896 118.548 16.9986 118.646 16.6075C118.743 16.2164 118.841 15.8254 118.841 15.4343C118.841 15.1411 118.743 14.75 118.646 14.3589ZM104.567 21.5935C104.47 21.789 104.372 21.8868 104.176 21.8868H100.461C100.266 21.8868 100.168 21.789 100.07 21.5935L97.6262 13.9679H97.5284L95.1821 21.5935C95.1821 21.789 94.9865 21.8868 94.791 21.8868H91.076C90.8804 21.8868 90.7827 21.789 90.6849 21.5935L86.5788 9.66621C86.481 9.47068 86.6765 9.17738 86.9698 9.17738H90.6849C90.8804 9.17738 90.9782 9.27516 91.076 9.47069L93.2268 17.1941H93.3245L95.4754 9.47069C95.4754 9.27516 95.6709 9.17738 95.8664 9.17738H99.4837C99.6793 9.17738 99.777 9.27516 99.8748 9.47069L102.123 17.1941H102.221L104.372 9.47069C104.372 9.27516 104.567 9.17738 104.763 9.17738H108.283C108.576 9.17738 108.674 9.47068 108.674 9.66621L104.567 21.5935ZM85.5034 21.8868H82.9615C82.766 21.8868 82.5704 21.789 82.4727 21.4957L82.1794 20.7136C81.7883 21.1047 81.2995 21.398 80.7129 21.6913C80.0285 22.0823 79.1487 22.1801 78.171 22.2779H77.8777C76.9001 22.2779 76.118 22.0823 75.3358 21.6913C74.5537 21.3002 73.9671 20.8114 73.4783 20.2248C72.9895 19.6382 72.5984 18.8561 72.3051 18.074C72.0118 17.2919 71.9141 16.412 71.9141 15.5321C71.9141 14.6522 72.0118 13.7723 72.3051 12.9902C72.5984 12.2081 72.9895 11.5237 73.4783 10.8394C73.9671 10.2528 74.6515 9.76398 75.3358 9.37292C76.118 8.98186 76.9001 8.8841 77.78 8.8841C78.7576 8.8841 79.5397 9.07963 80.1263 9.37292C80.8107 9.76398 81.2995 10.1551 81.5928 10.5461H81.6905V4.58246C81.6905 4.38693 81.8861 4.19141 82.0816 4.19141H85.5034C85.6989 4.19141 85.8944 4.38693 85.8944 4.58246V21.4957C85.7967 21.6913 85.6989 21.8868 85.5034 21.8868ZM81.5928 14.3589C81.495 13.9679 81.2017 13.5768 81.0062 13.2835C80.7129 12.9902 80.4196 12.6969 80.0286 12.5014C79.6375 12.3059 79.2464 12.2081 78.7576 12.2081C78.2688 12.2081 77.8777 12.3059 77.4867 12.5014C77.0956 12.6969 76.8023 12.8924 76.509 13.1857C76.2157 13.479 76.0202 13.8701 75.9224 14.2612C75.8247 14.6522 75.7269 15.0433 75.7269 15.4343C75.7269 15.8254 75.8247 16.2164 75.9224 16.6075C76.0202 16.9986 76.2157 17.3896 76.509 17.6829C76.8023 17.9762 77.0956 18.2695 77.4867 18.465C77.8777 18.6606 78.2688 18.7583 78.7576 18.7583C79.2464 18.7583 79.6375 18.6606 80.0286 18.465C80.4196 18.2695 80.7129 18.074 81.0062 17.6829C81.2995 17.3896 81.495 16.9986 81.5928 16.6075C81.6905 16.2164 81.7883 15.8254 81.7883 15.4343C81.7883 15.1411 81.7883 14.75 81.5928 14.3589ZM71.6208 9.27515L71.523 12.2081C71.523 12.4036 71.3275 12.5992 71.132 12.5014H70.4476C69.861 12.5014 69.3722 12.5992 69.0789 12.7947C68.6878 12.9902 68.3946 13.2835 68.199 13.5768C68.0035 13.8701 67.808 14.1634 67.7102 14.5544C67.6124 14.8477 67.5147 15.1411 67.5147 15.4343V21.5935C67.5147 21.789 67.3191 21.9846 67.1236 21.9846H63.7018C63.5063 21.9846 63.3108 21.789 63.3108 21.5935V9.66621C63.3108 9.47068 63.5063 9.27515 63.7018 9.27515H66.4392C66.6348 9.27515 66.8303 9.47068 66.9281 9.66621L67.2214 10.5461C67.6675 10.0889 68.199 9.72351 68.7856 9.47069C68.9812 9.37293 69.1767 9.27515 69.3722 9.27515C69.861 9.07962 70.3498 8.98187 70.8387 8.98187H71.4253C71.523 8.88411 71.6208 9.07962 71.6208 9.27515ZM52.5567 16.7053C52.5567 17.0963 52.6544 17.3896 52.85 17.6829C53.0455 17.9762 53.241 18.2695 53.5343 18.465C53.8276 18.6606 54.1209 18.8561 54.512 18.9539C54.903 19.0516 55.1963 19.1494 55.5874 19.1494C56.2717 19.1494 56.8583 19.0516 57.2494 18.7583L58.1292 18.1717C58.3248 17.9762 58.5203 17.9762 58.7158 18.1717L60.4756 20.0293C60.6712 20.2248 60.6712 20.5181 60.4756 20.6159C59.9868 21.0069 59.498 21.398 58.9114 21.6913C57.9337 22.1801 56.7606 22.3756 55.4896 22.3756C54.512 22.3756 53.6321 22.1801 52.7522 21.8868C51.8723 21.5935 51.188 21.2025 50.5036 20.6159C49.8193 20.0293 49.3304 19.3449 49.0371 18.5628C48.6461 17.6829 48.4506 16.803 48.4506 15.7276C48.4506 14.6522 48.6461 13.7723 48.9394 12.8925C49.3304 12.0126 49.8193 11.3282 50.4058 10.7416C50.9924 10.155 51.7746 9.66622 52.5567 9.37292C53.4366 9.07963 54.3164 8.8841 55.2941 8.8841C56.2717 8.8841 57.0539 9.07963 57.836 9.37292C58.6181 9.66622 59.3024 10.155 59.889 10.7416C60.4756 11.3282 60.8667 12.0126 61.16 12.8925C61.4533 13.7723 61.6488 14.75 61.6488 15.8254V16.803H52.5567V16.7053ZM57.2494 12.4036C56.8583 11.9148 56.174 11.7193 55.3919 11.7193C55.0008 11.7193 54.6097 11.817 54.3164 11.9148C54.0231 12.0126 53.6321 12.2081 53.4366 12.4036C53.1433 12.5992 52.9477 12.8924 52.85 13.1857C52.6544 13.479 52.6544 13.7723 52.5567 14.1634H57.9337C57.9337 13.479 57.7382 12.8925 57.2494 12.4036ZM46.7886 21.8868H43.269C43.0735 21.8868 42.878 21.6913 42.878 21.4957V14.9455C42.878 14.5545 42.878 14.2612 42.7802 13.9679L42.4869 13.088C42.3891 12.7947 42.1936 12.5992 41.9003 12.5014C41.607 12.4036 41.3137 12.3059 40.9227 12.3059C40.5316 12.3059 40.2383 12.4036 39.945 12.5014C39.6517 12.5992 39.4562 12.8924 39.2607 13.088C39.0651 13.3813 38.9674 13.6746 38.8696 13.9679C38.7719 14.2612 38.7719 14.6522 38.7719 15.0433V21.5935C38.7719 21.789 38.5763 21.9846 38.3808 21.9846H34.8613C34.6657 21.9846 34.4702 21.789 34.4702 21.5935V9.66621C34.4702 9.47068 34.6657 9.27515 34.8613 9.27515H37.5987C37.7942 9.27515 37.9897 9.37291 38.0875 9.66621L38.3808 10.4483C38.7719 10.0573 39.2607 9.76399 39.8473 9.47069C40.5316 9.1774 41.3137 8.98187 42.2914 8.98187H42.3892C43.1713 8.98187 43.9534 9.1774 44.4422 9.47069C45.0288 9.76399 45.5176 10.155 45.9087 10.6439C46.2997 11.1327 46.4953 11.7193 46.6908 12.3059C46.8863 12.8925 46.8863 13.5768 46.8863 14.1634V21.5935C47.0818 21.6913 46.9841 21.8868 46.7886 21.8868Z" fill="#E5E9FF"/>
</g>
<defs>
<clipPath id="clip0_13246_2129">
<rect width="26.6667" height="26.6667" fill="white"/>
</clipPath>
<clipPath id="clip1_13246_2129">
<rect width="125.432" height="20.7407" fill="white" transform="translate(34.5679 2.96289)"/>
</clipPath>
</defs>
</svg>
