<svg width="122" height="41" viewBox="0 0 122 41" fill="none" xmlns="http://www.w3.org/2000/svg">
<path d="M13.0806 0.34375C14.3616 0.34375 15.6426 0.34375 16.9624 0.34375C17.6397 2.01013 18.3167 3.67663 18.9935 5.34321C19.1544 5.73938 19.3153 6.13553 19.4763 6.53168C20.5713 9.22748 21.6646 11.9239 22.743 14.6264C23.6738 16.9589 24.6199 19.2849 25.57 21.6095C25.8831 22.376 26.196 23.1425 26.5088 23.9091C26.576 24.0735 26.6433 24.2379 26.7126 24.4073C27.524 26.3959 28.3166 28.3915 29.1143 30.3859C29.17 20.472 29.2257 10.5581 29.2831 0.34375C32.5691 0.34375 35.8552 0.34375 39.2409 0.34375C39.2409 11.3159 39.2409 22.288 39.2409 33.5926C38.9624 33.4812 38.6839 33.3698 38.397 33.2551C38.2799 33.2084 38.1628 33.1617 38.0422 33.1137C36.9938 32.6472 36.1259 32.0586 35.5278 31.061C35.0221 29.2184 35.1843 27.2097 35.2369 25.3174C35.2549 24.5571 35.2565 23.7966 35.2599 23.0361C35.2688 21.5989 35.2923 20.1624 35.3211 18.7254C35.3533 17.0884 35.369 15.4513 35.3834 13.8139C35.4133 10.4487 35.4643 7.08404 35.5278 3.71927C34.6366 3.71927 33.7455 3.71927 32.8274 3.71927C32.8274 15.7496 32.8274 27.78 32.8274 40.1749C31.602 40.1749 30.3767 40.1749 29.1143 40.1749C28.9979 39.889 28.8815 39.6031 28.7616 39.3086C28.6014 38.9152 28.4412 38.5218 28.281 38.1285C28.2388 38.0249 28.1966 37.9213 28.1531 37.8146C27.7257 36.7648 27.2981 35.7151 26.8675 34.6666C26.1516 32.9233 25.4457 31.1763 24.7472 29.426C24.0353 27.6421 23.3167 25.8611 22.5906 24.0829C21.9357 22.4789 21.284 20.8735 20.6333 19.2678C20.5529 19.0694 20.5529 19.0694 20.4709 18.867C20.252 18.3268 20.0331 17.7866 19.8142 17.2465C19.3967 16.2161 18.9789 15.1859 18.561 14.1558C18.1463 13.1333 17.732 12.1107 17.3177 11.0881C16.9325 10.1373 16.5465 9.18679 16.1603 8.23639C15.8666 7.51339 15.5733 6.79023 15.2801 6.06704C15.1371 5.71468 14.994 5.36238 14.8507 5.01015C14.6496 4.51586 14.4492 4.02134 14.2488 3.52676C14.1596 3.308 14.1596 3.308 14.0685 3.08482C14.0125 2.94603 13.9564 2.80725 13.8986 2.66426C13.8504 2.54554 13.8022 2.42683 13.7525 2.30452C13.51 1.65757 13.299 0.999197 13.0806 0.34375Z" fill="#E5E9FF"/>
<path d="M6.41349 0.175781C7.6388 0.175781 8.86412 0.175781 10.1266 0.175781C10.2873 0.578708 10.4481 0.981634 10.6138 1.39677C10.7724 1.79397 10.9311 2.19116 11.0897 2.58834C11.1986 2.86099 11.3075 3.13365 11.4162 3.40634C12.1413 5.22724 12.1413 5.22724 12.889 7.0389C13.5145 8.53036 14.1054 10.0361 14.7041 11.5385C15.7471 14.1553 16.7919 16.7711 17.8692 19.3741C20.0461 24.6361 22.1938 29.9106 24.3151 35.1953C24.4469 35.5238 24.579 35.8521 24.7112 36.1804C24.8933 36.6327 25.0747 37.0852 25.2557 37.5379C25.3087 37.669 25.3616 37.8001 25.4161 37.9351C25.4651 38.058 25.514 38.181 25.5645 38.3076C25.6275 38.4648 25.6275 38.4648 25.6918 38.6252C25.8723 39.134 26.012 39.6566 26.1603 40.1757C24.8793 40.1757 23.5983 40.1757 22.2784 40.1757C22.1836 39.9305 22.0887 39.6853 21.991 39.4327C20.9395 36.7297 19.8529 34.0417 18.7552 31.3572C18.6818 31.1775 18.6083 30.9978 18.5326 30.8127C18.2398 30.0968 17.9469 29.3808 17.6539 28.6649C17.0559 27.2037 16.4593 25.7419 15.8649 24.2791C15.8215 24.1723 15.7781 24.0655 15.7334 23.9555C15.0132 22.1826 14.3021 20.4062 13.5928 18.6289C12.9454 17.0081 12.2917 15.3899 11.635 13.7728C11.5881 13.6572 11.5411 13.5415 11.4928 13.4223C11.359 13.0928 11.2251 12.7633 11.0911 12.4338C10.9765 12.152 10.9765 12.152 10.8596 11.8646C10.6206 11.2853 10.3734 10.7095 10.1266 10.1336C10.0709 19.9918 10.0152 29.85 9.95779 40.0069C6.67172 40.0069 3.38565 40.0069 0 40.0069C0 29.0348 0 18.0627 0 6.75805C0.222784 6.86944 0.445569 6.98083 0.675104 7.0956C0.785845 7.13705 0.896586 7.17849 1.01068 7.2212C2.06345 7.62 2.93737 8.15206 3.5443 9.12091C4.05832 10.9637 3.8874 12.9873 3.83522 14.8814C3.81718 15.647 3.81559 16.4126 3.81219 17.1783C3.8033 18.6257 3.7798 20.0724 3.75093 21.5195C3.71877 23.168 3.70306 24.8165 3.68868 26.4652C3.65876 29.8543 3.60777 33.2428 3.5443 36.6314C4.49113 36.6314 5.43796 36.6314 6.41349 36.6314C6.41349 24.601 6.41349 12.5707 6.41349 0.175781Z" fill="#E5E9FF"/>
<g clip-path="url(#clip0_13246_2127)">
<path d="M103.387 11.334V29.0342H106.582V16.8599H106.668L111.935 25.7531H112.28L117.719 16.8599H117.806V29.0342H121V11.334H117.374L112.453 20.2273H112.366L107.186 11.334H103.387ZM50.459 11.334V29.0342H53.8263V17.0326H53.9127L62.1152 29.0342H65.6553V11.334H62.2879V23.1629H62.2015L54.0854 11.334H50.459ZM82.233 22.2995C82.233 26.8756 84.9959 29.4658 89.6584 29.4658C93.9755 29.4658 97.1701 26.8756 97.1701 22.2995V11.334H93.6301V22.2995C93.6301 24.458 92.5941 26.2712 89.6584 26.2712C86.7227 26.2712 85.773 24.199 85.773 22.0404V11.334H82.233V22.2995ZM72.4763 11.334V29.0342H76.0164V11.334H72.4763Z" fill="#E5E9FF"/>
</g>
<defs>
<clipPath id="clip0_13246_2127">
<rect width="71.1489" height="20.8365" fill="white" transform="translate(50.063 9.75781)"/>
</clipPath>
</defs>
</svg>
