<svg width="105" height="40" viewBox="0 0 105 40" fill="none" xmlns="http://www.w3.org/2000/svg">
<path fill-rule="evenodd" clip-rule="evenodd" d="M55.2069 13.557C54.3261 12.8161 52.8227 12.4461 50.6961 12.4461H45.8994V27.2695H49.4861V22.6236H51.0927C53.0427 22.6236 54.4727 22.1945 55.3827 21.3353C56.4077 20.3728 56.9236 19.0911 56.9236 17.4911C56.9236 15.832 56.3511 14.5203 55.2069 13.557ZM51.0036 19.2695H49.4861V15.8003H50.8494C52.5077 15.8003 53.3369 16.382 53.3369 17.5453C53.3369 18.6936 52.5586 19.2695 51.0036 19.2695ZM63.0611 12.4453H59.3211V27.2686H67.3961V23.9136H63.0611V12.4453ZM74.7236 12.4453L68.8486 27.2686H72.8752L73.6453 25.1136H78.7503L79.4544 27.2686H83.5261L77.6928 12.4453H74.7236ZM74.6794 22.1128L76.2202 17.0461L77.7369 22.1128H74.6794Z" fill="#E5E9FF"/>
<path fill-rule="evenodd" clip-rule="evenodd" d="M85.3942 27.2683H89.135V12.445H85.3942V27.2683ZM103.658 15.2233C103.186 14.5382 102.579 13.9562 101.875 13.5125C100.746 12.8008 99.205 12.4458 97.2542 12.4458H92.3258V27.2683H98.0908C100.174 27.2683 101.846 26.5875 103.107 25.2242C104.369 23.8617 104.999 22.0533 104.999 19.8008C104.999 18.0092 104.552 16.4833 103.658 15.2233ZM97.6725 23.9125H96.0667V15.8008H97.695C98.8392 15.8008 99.7183 16.1592 100.335 16.8733C100.952 17.5875 101.26 18.6008 101.26 19.9125C101.26 22.5792 100.064 23.9125 97.6725 23.9125ZM15.5308 0L3.40833 3.175L0.0675 15.3658L4.24583 19.6558L0 23.875L3.14417 36.1192L15.2142 39.4917L19.4608 35.2717L23.6392 39.5608L35.7617 36.3858L39.1017 24.1942L34.9242 19.9058L39.17 15.6867L36.0258 3.44167L23.9542 0.0691667L19.7092 4.28833L15.5308 0ZM8.09167 5.52L14.4775 3.84667L17.27 6.71333L13.1975 10.76L8.09167 5.52ZM22.11 6.75167L24.9475 3.9325L31.3058 5.70917L26.1167 10.865L22.11 6.75167ZM3.89333 14.365L5.6525 7.94417L10.7567 13.1842L6.685 17.2308L3.89333 14.365ZM28.5158 13.3292L33.705 8.17167L35.36 14.6217L32.5233 17.4417L28.5158 13.3292ZM15.5975 13.2233L19.67 9.17667L23.6758 13.29L19.6042 17.3367L15.5975 13.2233ZM9.08583 19.6942L13.1575 15.6475L17.1658 19.7608L13.0925 23.8075L9.08583 19.6942ZM22.005 19.8L26.0767 15.7533L30.0833 19.8667L26.0108 23.9133L22.005 19.8ZM3.80833 24.9392L6.64667 22.1183L10.6525 26.2325L5.465 31.3875L3.80833 24.9392ZM15.4925 26.2708L19.565 22.2242L23.5717 26.3375L19.5 30.3842L15.4925 26.2708ZM28.4108 26.3775L32.4833 22.3308L35.2758 25.1967L33.5175 31.6175L28.4108 26.3775ZM7.86417 33.8525L13.0525 28.695L17.0608 32.8083L14.2225 35.6292L7.86417 33.8525ZM21.9 32.8475L25.9717 28.8008L31.0767 34.0417L24.6917 35.7142L21.9 32.8475Z" fill="#E5E9FF"/>
</svg>
