<svg width="160" height="30" viewBox="0 0 160 30" fill="none" xmlns="http://www.w3.org/2000/svg">
<mask id="mask0_13246_2128" style="mask-type:luminance" maskUnits="userSpaceOnUse" x="0" y="1" width="160" height="28">
<path d="M159.664 1.61133H0V28.5021H159.664V1.61133Z" fill="white"/>
</mask>
<g mask="url(#mask0_13246_2128)">
<path d="M36.4457 9.18359C33.1595 9.18359 30.1702 10.2973 28.0076 12.3222C25.93 14.2661 24.7852 16.8985 24.7852 19.6928C24.7852 24.9575 28.6862 28.5013 34.5164 28.5013C37.8024 28.5013 40.7919 27.3875 42.9542 25.3626C45.032 23.4187 46.1768 20.7863 46.1768 17.992C46.1555 12.7272 42.2547 9.18359 36.4457 9.18359ZM35.0039 23.1148C32.4598 23.1148 31.315 21.2115 31.315 19.3283C31.315 16.6757 33.3504 14.59 35.9368 14.59C38.1417 14.59 39.6681 16.1695 39.6681 18.4171C39.6681 20.9888 37.5692 23.1148 35.0039 23.1148Z" fill="#E5E9FF"/>
<path d="M61.0373 18.8422C60.8677 20.442 60.1256 23.0945 57.2211 23.0945C56.3731 23.0945 55.737 22.8718 55.3344 22.4263C54.7406 21.7987 54.5287 20.6849 54.6983 19.065L55.6098 10.7628C55.6736 10.1554 55.1858 9.64915 54.5498 9.64915H50.225C49.6737 9.64915 49.2285 10.0339 49.1648 10.5604L48.0837 20.4622C47.808 22.9731 47.8715 24.836 48.9529 26.2939C49.9917 27.6911 51.7936 28.4403 54.1684 28.4403C56.6911 28.4403 58.8537 27.61 60.2317 26.1319L60.147 26.8812C60.0833 27.4683 60.5708 27.9947 61.207 27.9947H65.5744C66.1255 27.9947 66.5708 27.61 66.6344 27.0837L68.4152 10.7426C68.479 10.1554 67.9912 9.62891 67.3552 9.62891H62.9879C62.4366 9.62891 61.9913 10.0136 61.9278 10.5401L61.0373 18.8422Z" fill="#E5E9FF"/>
<path d="M71.4474 26.9424L72.8892 14.4284H70.8962C70.2602 14.4284 69.7727 13.9019 69.8361 13.3147L70.133 10.5811C70.1965 10.0748 70.6418 9.66985 71.193 9.66985H73.4191L74.2036 2.70418C74.2671 2.19795 74.7124 1.79297 75.2636 1.79297H79.8005C80.4367 1.79297 80.9243 2.31944 80.8605 2.90667L80.0974 9.64962H82.5143C83.1503 9.64962 83.6378 10.1761 83.5743 10.7633L83.2775 13.4969C83.214 14.0032 82.7688 14.4081 82.2176 14.4081H79.5675L78.38 27.1246C78.3376 27.651 77.8714 28.056 77.3201 28.056H72.5075C71.8502 28.056 71.3626 27.5497 71.4474 26.9424Z" fill="#E5E9FF"/>
<path d="M99.3695 11.614C98.267 10.1156 96.2529 9.22461 93.9208 9.22461C88.3026 9.22461 83.7231 13.9629 83.7231 19.7744C83.7231 24.8164 87.1578 28.4815 91.9067 28.4815C94.1964 28.4815 96.3588 27.6108 97.7582 26.1731L97.6734 26.9021C97.6098 27.5095 98.0973 28.0359 98.7333 28.0359H103.101C103.652 28.0359 104.097 27.6512 104.161 27.1247L105.963 10.7838C106.026 10.1763 105.539 9.67008 104.903 9.67008H100.536C99.9843 9.67008 99.5391 10.0548 99.4753 10.5813L99.3695 11.614ZM98.6275 18.3975C98.6275 20.9892 96.5285 23.1154 93.9633 23.1154C91.7582 23.1154 90.2319 21.5563 90.2319 19.329C90.2319 16.7168 92.3307 14.5907 94.8961 14.5907C97.0798 14.5704 98.6275 16.1498 98.6275 18.3975Z" fill="#E5E9FF"/>
<path d="M120.782 9.22426C118.471 9.22426 116.288 10.095 114.867 11.5732L115.864 2.74456C115.927 2.13709 115.44 1.63086 114.804 1.63086H110.457C109.906 1.63086 109.461 2.01559 109.397 2.54207L106.705 26.922C106.641 27.5294 107.129 28.0356 107.765 28.0356H112.132C112.683 28.0356 113.129 27.6508 113.192 27.1245L113.298 26.1119C114.231 27.3472 116.033 28.4811 118.789 28.4811C124.407 28.4811 128.987 23.7428 128.987 17.9313C128.966 12.8691 125.531 9.22426 120.782 9.22426ZM122.436 18.3971C122.436 20.9891 120.337 23.115 117.772 23.115C115.588 23.115 114.083 21.5559 114.083 19.3286C114.083 16.7164 116.16 14.5903 118.704 14.5903C121.27 14.57 122.436 16.5544 122.436 18.3971Z" fill="#E5E9FF"/>
<path d="M131.234 28.016H135.601C136.152 28.016 136.597 27.6314 136.662 27.105L139.354 2.72502C139.418 2.11755 138.93 1.61133 138.294 1.61133H133.926C133.375 1.61133 132.93 1.99606 132.866 2.52253L130.174 26.9024C130.11 27.5098 130.598 28.016 131.234 28.016Z" fill="#E5E9FF"/>
<path d="M150.485 9.18359C147.178 9.18359 144.337 10.277 142.302 12.3425C140.393 14.2864 139.333 16.9593 139.333 19.875C139.333 25.2815 142.832 28.5013 148.705 28.5013C153.75 28.5013 157.842 25.9699 158.88 22.2038C158.923 22.0214 158.796 21.8596 158.605 21.8596H153.263C152.903 21.8596 152.562 22.0214 152.371 22.2848C151.779 23.0947 150.57 23.8844 149.107 23.8844C147.941 23.8844 147.071 23.6009 146.5 23.0339C146.012 22.548 145.758 21.8393 145.715 20.9078C145.715 20.6851 145.906 20.4826 146.14 20.4826H158.732C158.923 20.4826 159.093 20.3611 159.135 20.1788C159.305 19.5308 159.666 18.0122 159.666 17.101C159.666 12.3627 155.976 9.18359 150.485 9.18359ZM146.626 16.6757C146.329 16.6757 146.14 16.4126 146.224 16.1493C146.732 14.5091 148.195 13.4966 150.125 13.4966C151.184 13.4966 152.033 13.8206 152.605 14.4079C153.05 14.8736 153.283 15.5012 153.305 16.2707C153.305 16.4935 153.114 16.6757 152.881 16.6757H146.626Z" fill="#E5E9FF"/>
<path d="M18.6572 19.7141C22.5159 17.9523 24.8903 14.4088 24.8903 10.3792C24.8903 7.98978 24.0211 5.8029 22.4735 4.20321C20.7986 2.50229 18.4665 1.61133 15.7529 1.61133H5.06757C4.51633 1.61133 4.0711 1.99606 4.00751 2.52253L3.15948 10.1767C3.7743 10.1969 4.38913 10.1767 4.98275 10.1362C6.16999 10.0349 7.33604 9.83245 8.4597 9.54896C8.84131 9.44771 9.22293 9.32622 9.58334 9.20473L9.96495 5.8029C9.98617 5.62065 10.2194 5.51939 10.3678 5.64089L17.2581 10.6829C17.3853 10.7842 17.3853 10.9866 17.237 11.0677L9.26532 16.1096C9.09573 16.2109 8.86252 16.0894 8.88371 15.887L9.18052 13.2748C7.78127 13.3963 6.38201 13.4165 5.00394 13.3153C3.58349 13.1938 2.22664 12.9508 0.91218 12.5863C0.742574 12.5458 0.594168 12.4851 0.424561 12.4446C0.148948 12.3636 -0.0842612 12.6673 0.0853458 12.8901L2.48104 15.9679L1.3362 26.9024C1.2726 27.5098 1.76022 28.016 2.39625 28.016H7.10283C7.65407 28.016 8.09927 27.6314 8.16289 27.105L8.7989 21.2125C8.82012 21.0099 9.01092 20.848 9.22293 20.848H11.0886C11.237 20.848 11.3854 20.929 11.4702 21.0707L15.0744 27.4896C15.2652 27.8137 15.6255 28.016 16.0072 28.016H21.5406C22.3463 28.016 22.8551 27.2061 22.4735 26.5379L18.6572 19.7141Z" fill="#E5E9FF"/>
</g>
</svg>
