<svg width="160" height="33" viewBox="0 0 160 33" fill="none" xmlns="http://www.w3.org/2000/svg">
<g clip-path="url(#clip0_13246_2121)">
<path d="M11.4874 0.175781C11.8478 0.447138 12.2475 0.655912 12.6305 0.89136C13.5361 1.44843 14.4464 1.99782 15.3577 2.55131C15.3061 2.66364 15.2005 2.69031 15.1172 2.74058C11.519 4.93041 7.92032 7.11921 4.31804 9.30237C4.14701 9.40598 4.07657 9.51474 4.07708 9.72301C4.08473 13.244 4.08473 16.7655 4.07708 20.2864C4.07708 20.4936 4.14446 20.6034 4.31651 20.7064C5.47694 21.4021 6.6338 22.1044 7.78503 22.8147C7.94739 22.9148 8.05766 22.9076 8.21643 22.8107C11.9219 20.5516 15.6308 18.2987 19.3392 16.0442C19.3974 16.0088 19.4557 15.9735 19.5144 15.9386C19.5945 15.8914 19.6426 15.9032 19.64 16.0082C19.6385 16.0596 19.64 16.1109 19.64 16.1622C19.64 17.5723 19.637 18.9824 19.6441 20.3926C19.6451 20.5746 19.5966 20.684 19.4352 20.7819C15.688 23.0538 11.9433 25.3303 8.20111 27.6109C8.0495 27.7033 7.94228 27.7008 7.79321 27.61C5.28754 26.0802 2.7783 24.5563 0.269048 23.0322C0.18379 22.9804 0.109763 22.9019 0 22.8983V7.10074C0.10619 7.11921 0.171027 7.03714 0.247096 6.99097C3.26941 5.15663 6.29072 3.32125 9.31049 1.48383C10.0211 1.0514 10.7277 0.611798 11.4363 0.175781C11.4532 0.175781 11.4705 0.175781 11.4874 0.175781Z" fill="#E5E9FF"/>
<path d="M12.9316 30.3081C12.9882 30.209 13.0827 30.1804 13.1602 30.1332C16.7666 27.9392 20.373 25.7459 23.9834 23.558C24.151 23.4565 24.2107 23.3518 24.2107 23.1549C24.2041 19.6247 24.2041 16.0945 24.2117 12.5643C24.2117 12.3637 24.1448 12.2632 23.9809 12.1652C22.8352 11.4778 21.6922 10.7853 20.5563 10.0815C20.3659 9.96356 20.2336 9.95587 20.0365 10.0764C16.3464 12.3294 12.6508 14.573 8.95659 16.8188C8.92749 16.8362 8.89635 16.8516 8.8698 16.8721C8.71409 16.9906 8.64313 16.9813 8.64875 16.7568C8.65998 16.3212 8.65232 15.8846 8.65232 15.4492C8.65232 14.4576 8.65691 13.4661 8.64875 12.4745C8.64722 12.2924 8.69571 12.1821 8.85704 12.0846C12.6053 9.81275 16.3506 7.53623 20.0928 5.25458C20.2489 5.15917 20.3551 5.172 20.5011 5.26125C23.0221 6.79963 25.5452 8.3344 28.0718 9.86353C28.2285 9.95843 28.2908 10.0538 28.2908 10.2426C28.2852 15.3199 28.2852 20.3977 28.2908 25.475C28.2908 25.6596 28.2381 25.7632 28.0784 25.8602C24.3955 28.0921 20.7156 30.3292 17.0383 32.5702C16.8877 32.662 16.7819 32.6635 16.6304 32.5702C15.4633 31.8521 14.2906 31.1437 13.12 30.4317C13.0567 30.3933 12.9955 30.3501 12.9316 30.3081Z" fill="#E5E9FF"/>
<path d="M45.8949 27.446C50.734 27.446 54.0386 25.0743 54.0386 21.0424C54.0386 12.6525 42.1181 16.9512 42.1181 11.9113C42.1181 10.2511 43.5344 9.03565 45.8949 9.03565C48.1963 9.03565 49.7013 10.2511 50.3503 12.1782L53.4781 11.2888C52.5633 8.11661 50.0258 6.01172 46.1015 6.01172C41.7935 6.01172 38.7838 8.53166 38.7838 12.2967C38.7838 20.6866 50.6159 16.3287 50.6159 21.5464C50.6159 23.2955 48.7865 24.4221 46.1015 24.4221C43.4164 24.4221 41.6755 23.1474 40.9378 20.4792L37.8691 21.4278C38.6658 25.1929 41.5279 27.446 45.8949 27.446Z" fill="#E5E9FF"/>
<path d="M63.1354 11.8232C58.8865 11.8232 55.8179 15.0843 55.8179 19.7388C55.8179 24.4526 59.1521 27.4469 63.342 27.4469C66.1746 27.4469 68.3876 26.0535 69.5974 23.9486L67.4434 22.4367C66.5582 23.7707 65.1419 24.6601 63.4011 24.6601C61.1585 24.6601 59.2406 23.1778 59.0931 20.5393H69.8629C70.5416 15.9145 67.7975 11.8232 63.1354 11.8232ZM63.0764 14.4914C65.1124 14.4914 66.5287 15.9441 66.7352 18.1083H59.2111C59.4176 15.9145 61.011 14.4914 63.0764 14.4914Z" fill="#E5E9FF"/>
<path d="M80.8303 11.8232C78.7649 11.8232 77.1125 12.7423 76.0798 14.5508V12.2383H72.6865V27.1504H76.0798V19.8574C76.0798 16.3591 77.8797 14.7286 79.9451 14.7286C81.804 14.7286 82.9253 16.0331 82.9253 18.1379V27.1504H86.3185V17.6933C86.3185 14.0763 84.1055 11.8232 80.8303 11.8232Z" fill="#E5E9FF"/>
<path d="M96.9389 23.9475C96.5258 24.333 96.0243 24.5998 95.3751 24.5998C94.4309 24.5998 93.8997 23.918 93.8997 22.7024V15.1427H97.7946V12.2373H93.8997V7.43457H90.5066V12.2373H88.146V15.1427H90.5066V23.0581C90.5066 25.8746 92.0114 27.4459 94.7259 27.4459C96.5554 27.4459 97.8536 26.7937 98.7094 25.8154L96.9389 23.9475Z" fill="#E5E9FF"/>
<path d="M100.447 9.59931H104.047V6.31738H100.447V9.59931ZM100.565 27.1499H103.959V12.2378H100.565V27.1499Z" fill="#E5E9FF"/>
<path d="M111.309 24.0074V6.31738H107.798V27.1499H119.246V24.0074H111.309Z" fill="#E5E9FF"/>
<path d="M121.847 9.59931H125.447V6.31738H121.847V9.59931ZM121.964 27.1499H125.358V12.2378H121.964V27.1499Z" fill="#E5E9FF"/>
<path d="M137.046 11.8232C134.981 11.8232 133.327 12.7423 132.295 14.5508V12.2383H128.902V27.1504H132.295V19.8574C132.295 16.3591 134.095 14.7286 136.161 14.7286C138.02 14.7286 139.141 16.0331 139.141 18.1379V27.1504H142.534V17.6933C142.534 14.0763 140.321 11.8232 137.046 11.8232Z" fill="#E5E9FF"/>
<path d="M156.047 27.1499H160L154.246 17.8706L159.498 12.2378H155.338L149.378 18.7303V6.39746H145.985V27.1499H149.378V23.0587L151.945 20.3312L156.047 27.1499Z" fill="#E5E9FF"/>
</g>
<defs>
<clipPath id="clip0_13246_2121">
<rect width="160" height="32.4638" fill="white" transform="translate(0 0.175781)"/>
</clipPath>
</defs>
</svg>
