<svg width="127" height="36" viewBox="0 0 127 36" fill="none" xmlns="http://www.w3.org/2000/svg">
<g clip-path="url(#clip0_13246_2125)">
<path d="M37.2735 10.65C30.6337 10.65 25.2011 16.05 25.2011 22.65C25.2011 29.25 30.6337 34.65 37.2735 34.65C43.9134 34.65 49.3459 29.25 49.3459 22.65C49.3459 16.05 43.9134 10.65 37.2735 10.65ZM43.1588 22.5C43.1588 25.8 40.5934 28.5 37.4244 28.5C34.2554 28.5 31.69 25.8 31.69 22.5C31.69 19.2 34.2554 16.5 37.4244 16.5C40.5934 16.5 43.1588 19.2 43.1588 22.5ZM79.527 11.1C79.3761 10.95 79.2252 10.95 79.0743 10.95H74.2453C73.9435 10.95 73.6417 11.25 73.6417 11.55V33.3C73.6417 33.45 73.6417 33.6 73.7926 33.75C73.9435 33.9 74.0944 33.9 74.2453 33.9H79.0743C79.3761 33.9 79.6779 33.6 79.6779 33.3V11.55C79.6779 11.4 79.6779 11.25 79.527 11.1ZM76.6598 8.1C78.4707 8.1 79.9798 6.6 79.9798 4.8C80.1307 3 78.4707 1.5 76.6598 1.5C74.849 1.5 73.3399 3 73.3399 4.8C73.3399 6.75 74.849 8.1 76.6598 8.1ZM70.1709 1.95H52.515C52.2132 1.95 51.9113 2.25 51.9113 2.55V33.3C51.9113 33.45 51.9113 33.6 52.0622 33.75C52.2132 33.9 52.3641 33.9 52.515 33.9H57.3439C57.6457 33.9 57.9476 33.6 57.9476 33.3V20.85H68.8127C68.9637 20.85 69.1146 20.85 69.2655 20.7C69.4164 20.55 69.4164 20.4 69.4164 20.25V15.75C69.4164 15.45 69.1146 15.15 68.8127 15.15H57.9476V7.65H70.1709C70.3218 7.65 70.4727 7.65 70.6236 7.5C70.7745 7.35 70.7745 7.2 70.7745 7.05V2.55C70.7745 2.25 70.4727 1.95 70.1709 1.95ZM13.8832 15.3C9.05419 13.2 7.54514 12.3 7.54514 10.5C7.54514 8.1 9.80872 7.35 11.9214 7.35C14.185 7.35 16.5995 8.55 16.5995 11.85C16.5995 12.15 16.7504 12.3 17.0522 12.3H22.3339C22.4848 12.15 22.6357 12 22.6357 11.85C22.6357 5.85 18.2594 1.5 11.9214 1.5C5.58337 1.5 1.50892 5.1 1.50892 10.5C1.50892 16.95 6.3379 18.9 11.016 20.7L11.3178 20.85C15.694 22.5 17.2031 23.25 17.2031 25.35C17.2031 28.2 14.185 28.65 12.525 28.65C9.356 28.65 6.94152 26.4 6.94152 23.4V23.1C6.94152 22.8 6.79061 22.65 6.4888 22.65H1.20711C1.05621 22.65 0.754395 22.8 0.754395 23.1V23.55C0.754395 30.15 5.58337 34.65 12.3741 34.65C18.863 34.65 23.2393 30.9 23.2393 25.5C23.3902 19.95 20.523 18 13.8832 15.3ZM126.006 33C126.006 33.9 125.402 34.5 124.497 34.5C123.591 34.5 122.988 33.9 122.988 33C122.988 32.1 123.591 31.5 124.497 31.5C125.402 31.5 126.006 32.1 126.006 33ZM123.29 33C123.29 33.75 123.742 34.2 124.497 34.2C125.251 34.2 125.704 33.75 125.704 33C125.704 32.25 125.251 31.8 124.497 31.8C123.742 31.8 123.29 32.25 123.29 33ZM125.1 32.7C125.1 32.85 124.95 33 124.799 33.15L125.1 33.75H124.648L124.346 33.15H124.195V33.75H123.893V32.25H124.497C124.799 32.25 125.1 32.4 125.1 32.7ZM124.346 32.55V33H124.497C124.648 33 124.799 32.85 124.799 32.85C124.799 32.7 124.648 32.7 124.497 32.7H124.346V32.55ZM118.159 2.85C120.272 2.85 121.931 4.5 121.931 6.6C121.931 8.7 120.272 10.35 118.159 10.35C116.046 10.35 114.386 8.7 114.386 6.6C114.386 4.5 116.046 2.85 118.159 2.85ZM118.159 1.5C115.292 1.5 112.877 3.9 112.877 6.75C112.877 9.6 115.292 12 118.159 12C121.026 12 123.441 9.6 123.441 6.75C123.441 3.9 121.026 1.5 118.159 1.5Z" fill="#E5E9FF"/>
<path d="M120.673 22.5989C123.236 21.2137 124.184 18.0259 122.79 15.4787C121.396 12.9314 118.189 11.9895 115.627 13.3747C113.064 14.7599 112.117 17.9477 113.51 20.4949C114.904 23.0421 118.111 23.9841 120.673 22.5989Z" fill="#E5E9FF"/>
<path d="M120.666 33.8489C123.229 32.4637 124.176 29.2759 122.783 26.7287C121.389 24.1814 118.182 23.2395 115.619 24.6247C113.057 26.0099 112.109 29.1977 113.503 31.7449C114.896 34.2921 118.103 35.2341 120.666 33.8489Z" fill="#E5E9FF"/>
<path d="M106.841 14.25C107.898 14.25 108.803 14.7 109.558 15.3C110.312 16.05 110.614 16.95 110.614 18C110.614 20.1 108.954 21.75 106.841 21.75C105.785 21.75 104.879 21.3 104.125 20.7C103.37 19.95 103.069 19.05 103.069 18C102.918 15.9 104.729 14.25 106.841 14.25ZM106.841 12.75C103.974 12.75 101.56 15.15 101.56 18C101.56 20.85 103.974 23.25 106.841 23.25C109.708 23.25 112.123 20.85 112.123 18C112.123 15.15 109.708 12.75 106.841 12.75Z" fill="#E5E9FF"/>
<path d="M100.317 20.0851C101.498 17.4341 100.294 14.333 97.6268 13.1587C94.9598 11.9844 91.84 13.1816 90.6586 15.8326C89.4772 18.4837 90.6816 21.5848 93.3487 22.7591C96.0157 23.9333 99.1355 22.7362 100.317 20.0851Z" fill="#E5E9FF"/>
<path d="M111.658 8.83903C112.839 6.18797 111.635 3.08691 108.968 1.91262C106.301 0.738333 103.181 1.93549 101.999 4.58655C100.818 7.23761 102.022 10.3387 104.689 11.513C107.357 12.6872 110.476 11.4901 111.658 8.83903Z" fill="#E5E9FF"/>
<path d="M100.331 8.82536C101.512 6.1743 100.308 3.07324 97.641 1.89895C94.9739 0.724656 91.8541 1.92182 90.6728 4.57288C89.4914 7.22394 90.6958 10.325 93.3628 11.4993C96.0299 12.6736 99.1497 11.4764 100.331 8.82536Z" fill="#E5E9FF"/>
<path d="M111.63 31.3566C112.812 28.7055 111.607 25.6045 108.94 24.4302C106.273 23.2559 103.153 24.4531 101.972 27.1041C100.791 29.7552 101.995 32.8562 104.662 34.0305C107.329 35.2048 110.449 34.0077 111.63 31.3566Z" fill="#E5E9FF"/>
<path d="M95.5234 25.5C96.5797 25.5 97.4852 25.95 98.2397 26.55C98.9942 27.3 99.296 28.2 99.296 29.25C99.296 31.35 97.6361 33 95.5234 33C93.4107 33 91.7508 31.35 91.7508 29.25C91.5998 27.15 93.4107 25.5 95.5234 25.5ZM95.5234 24C92.6562 24 90.2417 26.4 90.2417 29.25C90.2417 32.1 92.6562 34.5 95.5234 34.5C98.3906 34.5 100.805 32.1 100.805 29.25C100.805 26.4 98.3906 24 95.5234 24Z" fill="#E5E9FF"/>
</g>
<defs>
<clipPath id="clip0_13246_2125">
<rect width="126.761" height="36" fill="white"/>
</clipPath>
</defs>
</svg>
